solid RaspiUpper
facet normal 0.5555702330196014 0.8314696123025458 1.2481048405726808e-17
  outer loop
    vertex 117.83456760970125 106.6803963121597 35.0
    vertex 125.24764113027156 101.72713894438942 5.000000000000002
    vertex 117.83456760970125 106.6803963121597 5.000000000000002
  endloop
endfacet
facet normal 0.5555702330196014 0.8314696123025458 1.2481048405726808e-17
  outer loop
    vertex 125.24764113027156 101.72713894438942 5.000000000000002
    vertex 117.83456760970125 106.6803963121597 35.0
    vertex 125.24764113027156 101.72713894438942 35.0
  endloop
endfacet
facet normal -0.5555702330196026 0.831469612302545 -1.2481048405726853e-17
  outer loop
    vertex 92.93286123004634 101.72713894438942 35.0
    vertex 100.34593475061666 106.68039631215971 5.000000000000002
    vertex 92.93286123004634 101.72713894438942 5.0
  endloop
endfacet
facet normal -0.5555702330196026 0.831469612302545 -1.2481048405726853e-17
  outer loop
    vertex 100.34593475061666 106.68039631215971 5.000000000000002
    vertex 92.93286123004634 101.72713894438942 35.0
    vertex 100.34593475061666 106.68039631215971 35.0
  endloop
endfacet
facet normal 0.9807852804032309 -0.19509032201612644 2.20336292925636e-17
  outer loop
    vertex 131.94025118015895 85.56974899427681 5.000000000000002
    vertex 130.20089849804185 76.82543256473451 35.0
    vertex 130.20089849804185 76.82543256473451 5.000000000000002
  endloop
endfacet
facet normal 0.9807852804032309 -0.19509032201612644 2.20336292925636e-17
  outer loop
    vertex 130.20089849804185 76.82543256473451 35.0
    vertex 131.94025118015895 85.56974899427681 5.000000000000002
    vertex 131.94025118015895 85.56974899427681 35.0
  endloop
endfacet
facet normal -0.7071067811865476 0.7071067811865476 -1.5885361452933726e-17
  outer loop
    vertex 94.948115556428 71.42761337054586 35.0
    vertex 92.93286123004634 69.4123590441642 5.0
    vertex 92.93286123004634 69.4123590441642 35.0
  endloop
endfacet
facet normal -0.7071067811865476 0.7071067811865476 -1.5885361452933726e-17
  outer loop
    vertex 92.93286123004634 69.4123590441642 5.0
    vertex 94.948115556428 71.42761337054586 35.0
    vertex 94.948115556428 71.42761337054586 5.0
  endloop
endfacet
facet normal -0.5555702330196023 -0.8314696123025452 -1.2481048405726828e-17
  outer loop
    vertex 100.34593475061665 64.45910167639391 5.000000000000002
    vertex 92.93286123004634 69.4123590441642 35.0
    vertex 92.93286123004634 69.4123590441642 5.0
  endloop
endfacet
facet normal -0.5555702330196023 -0.8314696123025452 -1.2481048405726828e-17
  outer loop
    vertex 92.93286123004634 69.4123590441642 35.0
    vertex 100.34593475061665 64.45910167639391 5.000000000000002
    vertex 100.34593475061665 64.45910167639391 35.0
  endloop
endfacet
facet normal 0.8314696123025446 -0.5555702330196032 1.8679208968117686e-17
  outer loop
    vertex 130.20089849804185 76.82543256473451 5.000000000000002
    vertex 125.24764113027156 69.4123590441642 35.0
    vertex 125.24764113027156 69.4123590441642 5.000000000000002
  endloop
endfacet
facet normal 0.8314696123025446 -0.5555702330196032 1.8679208968117686e-17
  outer loop
    vertex 125.24764113027156 69.4123590441642 35.0
    vertex 130.20089849804185 76.82543256473451 5.000000000000002
    vertex 130.20089849804185 76.82543256473451 35.0
  endloop
endfacet
facet normal 0.8314696123025446 0.5555702330196032 1.8679208968117674e-17
  outer loop
    vertex 125.24764113027156 101.72713894438942 5.000000000000002
    vertex 130.20089849804185 94.3140654238191 35.0
    vertex 130.20089849804185 94.3140654238191 5.000000000000002
  endloop
endfacet
facet normal 0.8314696123025446 0.5555702330196032 1.8679208968117674e-17
  outer loop
    vertex 130.20089849804185 94.3140654238191 35.0
    vertex 125.24764113027156 101.72713894438942 5.000000000000002
    vertex 125.24764113027156 101.72713894438942 35.0
  endloop
endfacet
facet normal -2.246529360993764e-17 1.1198756351800642e-32 1.0
  outer loop
    vertex 100.34593475061665 64.45910167639391 35.0
    vertex 94.948115556428 71.42761337054586 35.0
    vertex 92.93286123004634 69.4123590441642 35.0
  endloop
endfacet
facet normal -2.246529360993764e-17 1.1198756351800642e-32 1.0
  outer loop
    vertex 94.948115556428 71.42761337054586 35.0
    vertex 100.34593475061665 64.45910167639391 35.0
    vertex 101.43658253285716 67.09215834405107 35.0
  endloop
endfacet
facet normal -2.246529360993764e-17 1.1198756351800642e-32 1.0
  outer loop
    vertex 101.43658253285716 67.09215834405107 35.0
    vertex 100.34593475061665 64.45910167639391 35.0
    vertex 109.09025118015894 62.71974899427682 35.0
  endloop
endfacet
facet normal -2.246529360993764e-17 1.1198756351800642e-32 1.0
  outer loop
    vertex 101.43658253285716 67.09215834405107 35.0
    vertex 109.09025118015894 62.71974899427682 35.0
    vertex 109.09025118015894 65.5697489942768 35.0
  endloop
endfacet
facet normal -2.246529360993764e-17 1.1198756351800642e-32 1.0
  outer loop
    vertex 109.09025118015894 65.5697489942768 35.0
    vertex 109.09025118015894 62.71974899427682 35.0
    vertex 117.83456760970125 64.45910167639391 35.0
  endloop
endfacet
facet normal -2.246529360993764e-17 1.1198756351800642e-32 1.0
  outer loop
    vertex 109.09025118015894 65.5697489942768 35.0
    vertex 117.83456760970125 64.45910167639391 35.0
    vertex 116.74391982746074 67.09215834405107 35.0
  endloop
endfacet
facet normal -2.246529360993764e-17 1.1198756351800642e-32 1.0
  outer loop
    vertex 116.74391982746074 67.09215834405107 35.0
    vertex 117.83456760970125 64.45910167639391 35.0
    vertex 123.23238680388991 71.42761337054586 35.0
  endloop
endfacet
facet normal -2.246529360993764e-17 1.1198756351800642e-32 1.0
  outer loop
    vertex 123.23238680388991 71.42761337054586 35.0
    vertex 117.83456760970125 64.45910167639391 35.0
    vertex 125.24764113027156 69.4123590441642 35.0
  endloop
endfacet
facet normal -2.246529360993764e-17 1.1198756351800642e-32 1.0
  outer loop
    vertex 123.23238680388991 71.42761337054586 35.0
    vertex 125.24764113027156 69.4123590441642 35.0
    vertex 127.56784183038468 77.91608034697501 35.0
  endloop
endfacet
facet normal -2.246529360993764e-17 1.1198756351800642e-32 1.0
  outer loop
    vertex 127.56784183038468 77.91608034697501 35.0
    vertex 125.24764113027156 69.4123590441642 35.0
    vertex 130.20089849804185 76.82543256473451 35.0
  endloop
endfacet
facet normal -2.246529360993764e-17 1.1198756351800642e-32 1.0
  outer loop
    vertex 127.56784183038468 77.91608034697501 35.0
    vertex 130.20089849804185 76.82543256473451 35.0
    vertex 129.09025118015896 85.56974899427681 35.0
  endloop
endfacet
facet normal -2.246529360993764e-17 1.1198756351800642e-32 1.0
  outer loop
    vertex 94.948115556428 99.71188461800777 35.0
    vertex 100.34593475061666 106.68039631215971 35.0
    vertex 92.93286123004634 101.72713894438942 35.0
  endloop
endfacet
facet normal -2.246529360993764e-17 1.1198756351800642e-32 1.0
  outer loop
    vertex 100.34593475061666 106.68039631215971 35.0
    vertex 94.948115556428 99.71188461800777 35.0
    vertex 101.43658253285717 104.04733964450256 35.0
  endloop
endfacet
facet normal -2.246529360993764e-17 1.1198756351800642e-32 1.0
  outer loop
    vertex 100.34593475061666 106.68039631215971 35.0
    vertex 101.43658253285717 104.04733964450256 35.0
    vertex 109.09025118015894 108.4197489942768 35.0
  endloop
endfacet
facet normal -2.246529360993764e-17 1.1198756351800642e-32 1.0
  outer loop
    vertex 109.09025118015894 108.4197489942768 35.0
    vertex 101.43658253285717 104.04733964450256 35.0
    vertex 109.09025118015894 105.56974899427682 35.0
  endloop
endfacet
facet normal -2.246529360993764e-17 1.1198756351800642e-32 1.0
  outer loop
    vertex 109.09025118015894 108.4197489942768 35.0
    vertex 109.09025118015894 105.56974899427682 35.0
    vertex 116.74391982746074 104.04733964450254 35.0
  endloop
endfacet
facet normal -2.246529360993764e-17 1.1198756351800642e-32 1.0
  outer loop
    vertex 109.09025118015894 108.4197489942768 35.0
    vertex 116.74391982746074 104.04733964450254 35.0
    vertex 117.83456760970125 106.6803963121597 35.0
  endloop
endfacet
facet normal -2.246529360993764e-17 1.1198756351800642e-32 1.0
  outer loop
    vertex 117.83456760970125 106.6803963121597 35.0
    vertex 116.74391982746074 104.04733964450254 35.0
    vertex 123.23238680388991 99.71188461800776 35.0
  endloop
endfacet
facet normal -2.246529360993764e-17 1.1198756351800642e-32 1.0
  outer loop
    vertex 117.83456760970125 106.6803963121597 35.0
    vertex 123.23238680388991 99.71188461800776 35.0
    vertex 125.24764113027156 101.72713894438942 35.0
  endloop
endfacet
facet normal -2.246529360993764e-17 1.1198756351800642e-32 1.0
  outer loop
    vertex 125.24764113027156 101.72713894438942 35.0
    vertex 123.23238680388991 99.71188461800776 35.0
    vertex 127.56784183038468 93.2234176415786 35.0
  endloop
endfacet
facet normal -2.246529360993764e-17 1.1198756351800642e-32 1.0
  outer loop
    vertex 125.24764113027156 101.72713894438942 35.0
    vertex 127.56784183038468 93.2234176415786 35.0
    vertex 130.20089849804185 94.3140654238191 35.0
  endloop
endfacet
facet normal -2.246529360993764e-17 1.1198756351800642e-32 1.0
  outer loop
    vertex 130.20089849804185 94.3140654238191 35.0
    vertex 127.56784183038468 93.2234176415786 35.0
    vertex 129.09025118015896 85.56974899427681 35.0
  endloop
endfacet
facet normal -2.246529360993764e-17 1.1198756351800642e-32 1.0
  outer loop
    vertex 130.20089849804185 94.3140654238191 35.0
    vertex 129.09025118015896 85.56974899427681 35.0
    vertex 130.20089849804185 76.82543256473451 35.0
  endloop
endfacet
facet normal -2.246529360993764e-17 1.1198756351800642e-32 1.0
  outer loop
    vertex 130.20089849804185 94.3140654238191 35.0
    vertex 130.20089849804185 76.82543256473451 35.0
    vertex 131.94025118015895 85.56974899427681 35.0
  endloop
endfacet
facet normal -0.19509032201612667 0.9807852804032309 -4.382761364549578e-18
  outer loop
    vertex 100.34593475061666 106.68039631215971 35.0
    vertex 109.09025118015894 108.4197489942768 5.000000000000002
    vertex 100.34593475061666 106.68039631215971 5.000000000000002
  endloop
endfacet
facet normal -0.19509032201612667 0.9807852804032309 -4.382761364549578e-18
  outer loop
    vertex 109.09025118015894 108.4197489942768 5.000000000000002
    vertex 100.34593475061666 106.68039631215971 35.0
    vertex 109.09025118015894 108.4197489942768 35.0
  endloop
endfacet
facet normal 0.19509032201612886 0.9807852804032304 4.382761364549606e-18
  outer loop
    vertex 109.09025118015894 108.4197489942768 35.0
    vertex 117.83456760970125 106.6803963121597 5.000000000000002
    vertex 109.09025118015894 108.4197489942768 5.000000000000002
  endloop
endfacet
facet normal 0.19509032201612886 0.9807852804032304 4.382761364549606e-18
  outer loop
    vertex 117.83456760970125 106.6803963121597 5.000000000000002
    vertex 109.09025118015894 108.4197489942768 35.0
    vertex 117.83456760970125 106.6803963121597 35.0
  endloop
endfacet
facet normal -0.7071067811865456 -0.7071067811865495 -1.5885361452933668e-17
  outer loop
    vertex 94.948115556428 99.71188461800777 35.0
    vertex 92.93286123004634 101.72713894438942 5.0
    vertex 94.948115556428 99.71188461800777 5.0
  endloop
endfacet
facet normal -0.7071067811865456 -0.7071067811865495 -1.5885361452933668e-17
  outer loop
    vertex 92.93286123004634 101.72713894438942 5.0
    vertex 94.948115556428 99.71188461800777 35.0
    vertex 92.93286123004634 101.72713894438942 35.0
  endloop
endfacet
facet normal 0.5555702330196022 -0.8314696123025455 1.2481048405726845e-17
  outer loop
    vertex 101.43658253285717 104.04733964450256 35.0
    vertex 94.948115556428 99.71188461800777 5.0
    vertex 101.43658253285717 104.04733964450256 5.0
  endloop
endfacet
facet normal 0.5555702330196022 -0.8314696123025455 1.2481048405726845e-17
  outer loop
    vertex 94.948115556428 99.71188461800777 5.0
    vertex 101.43658253285717 104.04733964450256 35.0
    vertex 94.948115556428 99.71188461800777 35.0
  endloop
endfacet
facet normal -0.19509032201612764 -0.9807852804032307 -4.382761364549578e-18
  outer loop
    vertex 109.09025118015894 62.71974899427682 35.0
    vertex 100.34593475061665 64.45910167639391 5.000000000000002
    vertex 109.09025118015894 62.71974899427682 5.000000000000002
  endloop
endfacet
facet normal -0.19509032201612764 -0.9807852804032307 -4.382761364549578e-18
  outer loop
    vertex 100.34593475061665 64.45910167639391 5.000000000000002
    vertex 109.09025118015894 62.71974899427682 35.0
    vertex 100.34593475061665 64.45910167639391 35.0
  endloop
endfacet
facet normal 0.5555702330196023 -0.8314696123025452 1.2481048405726847e-17
  outer loop
    vertex 125.24764113027156 69.4123590441642 35.0
    vertex 117.83456760970125 64.45910167639391 5.000000000000002
    vertex 125.24764113027156 69.4123590441642 5.000000000000002
  endloop
endfacet
facet normal 0.5555702330196023 -0.8314696123025452 1.2481048405726847e-17
  outer loop
    vertex 117.83456760970125 64.45910167639391 5.000000000000002
    vertex 125.24764113027156 69.4123590441642 35.0
    vertex 117.83456760970125 64.45910167639391 35.0
  endloop
endfacet
facet normal 0.19509032201612764 -0.9807852804032307 4.3827613645495995e-18
  outer loop
    vertex 117.83456760970125 64.45910167639391 35.0
    vertex 109.09025118015894 62.71974899427682 5.000000000000002
    vertex 117.83456760970125 64.45910167639391 5.000000000000002
  endloop
endfacet
facet normal 0.19509032201612764 -0.9807852804032307 4.3827613645495995e-18
  outer loop
    vertex 109.09025118015894 62.71974899427682 5.000000000000002
    vertex 117.83456760970125 64.45910167639391 35.0
    vertex 109.09025118015894 62.71974899427682 35.0
  endloop
endfacet
facet normal 0.9807852804032309 0.19509032201612644 2.20336292925636e-17
  outer loop
    vertex 130.20089849804185 94.3140654238191 5.000000000000002
    vertex 131.94025118015895 85.56974899427681 35.0
    vertex 131.94025118015895 85.56974899427681 5.000000000000002
  endloop
endfacet
facet normal 0.9807852804032309 0.19509032201612644 2.20336292925636e-17
  outer loop
    vertex 131.94025118015895 85.56974899427681 35.0
    vertex 130.20089849804185 94.3140654238191 5.000000000000002
    vertex 130.20089849804185 94.3140654238191 35.0
  endloop
endfacet
facet normal 0.5555702330196027 0.8314696123025449 1.2481048405726837e-17
  outer loop
    vertex 94.948115556428 71.42761337054586 35.0
    vertex 101.43658253285716 67.09215834405107 5.0
    vertex 94.948115556428 71.42761337054586 5.0
  endloop
endfacet
facet normal 0.5555702330196027 0.8314696123025449 1.2481048405726837e-17
  outer loop
    vertex 101.43658253285716 67.09215834405107 5.0
    vertex 94.948115556428 71.42761337054586 35.0
    vertex 101.43658253285716 67.09215834405107 35.0
  endloop
endfacet
facet normal 0.0 0.0 -1.0
  outer loop
    vertex 137.14025118015894 113.61974899427682 0.0
    vertex 113.99025118015896 57.51974899427682 0.0
    vertex 113.99025118015896 113.61974899427679 0.0
  endloop
endfacet
facet normal 0.0 0.0 -1.0
  outer loop
    vertex 113.99025118015896 57.51974899427682 0.0
    vertex 137.14025118015894 113.61974899427682 0.0
    vertex 137.14025118015894 57.51974899427682 0.0
  endloop
endfacet
facet normal 0.0 0.0 -1.0
  outer loop
    vertex 113.99025118015896 123.41974899427686 0.0
    vertex 104.19025118015895 113.61974899427682 0.0
    vertex 104.19025118015895 123.41974899427686 0.0
  endloop
endfacet
facet normal 0.0 0.0 -1.0
  outer loop
    vertex 104.19025118015895 113.61974899427682 0.0
    vertex 113.99025118015896 123.41974899427686 0.0
    vertex 104.19025118015895 57.519748994276824 0.0
  endloop
endfacet
facet normal 0.0 0.0 -1.0
  outer loop
    vertex 104.19025118015895 57.519748994276824 0.0
    vertex 113.99025118015896 123.41974899427686 0.0
    vertex 104.19025118015895 47.71974899427681 0.0
  endloop
endfacet
facet normal 0.0 0.0 -1.0
  outer loop
    vertex 104.19025118015895 47.71974899427681 0.0
    vertex 113.99025118015896 123.41974899427686 0.0
    vertex 113.99025118015896 47.71974899427681 0.0
  endloop
endfacet
facet normal 0.0 0.0 -1.0
  outer loop
    vertex 113.99025118015896 47.71974899427681 0.0
    vertex 113.99025118015896 123.41974899427686 0.0
    vertex 113.99025118015896 113.61974899427679 0.0
  endloop
endfacet
facet normal 0.0 0.0 -1.0
  outer loop
    vertex 113.99025118015896 47.71974899427681 0.0
    vertex 113.99025118015896 113.61974899427679 0.0
    vertex 113.99025118015896 57.51974899427682 0.0
  endloop
endfacet
facet normal 0.0 0.0 -1.0
  outer loop
    vertex 104.19025118015895 113.61974899427682 0.0
    vertex 81.04025118015896 57.51974899427682 0.0
    vertex 81.04025118015896 113.61974899427682 0.0
  endloop
endfacet
facet normal 0.0 0.0 -1.0
  outer loop
    vertex 81.04025118015896 57.51974899427682 0.0
    vertex 104.19025118015895 113.61974899427682 0.0
    vertex 104.19025118015895 57.519748994276824 0.0
  endloop
endfacet
facet normal 0.19509032201612825 0.9807852804032304 4.38276136454959e-18
  outer loop
    vertex 101.43658253285716 67.09215834405107 35.0
    vertex 109.09025118015894 65.5697489942768 5.0
    vertex 101.43658253285716 67.09215834405107 5.0
  endloop
endfacet
facet normal 0.19509032201612825 0.9807852804032304 4.38276136454959e-18
  outer loop
    vertex 109.09025118015894 65.5697489942768 5.0
    vertex 101.43658253285716 67.09215834405107 35.0
    vertex 109.09025118015894 65.5697489942768 35.0
  endloop
endfacet
facet normal -0.5555702330196022 0.8314696123025455 -1.2481048405726845e-17
  outer loop
    vertex 116.74391982746074 67.09215834405107 35.0
    vertex 123.23238680388991 71.42761337054586 5.0
    vertex 116.74391982746074 67.09215834405107 5.0
  endloop
endfacet
facet normal -0.5555702330196022 0.8314696123025455 -1.2481048405726845e-17
  outer loop
    vertex 123.23238680388991 71.42761337054586 5.0
    vertex 116.74391982746074 67.09215834405107 35.0
    vertex 123.23238680388991 71.42761337054586 35.0
  endloop
endfacet
facet normal -0.0 1.0 0.0
  outer loop
    vertex 81.04025118015896 96.02684597358515 5.0
    vertex 97.09025118015894 96.02684597358515 3.0
    vertex 81.04025118015896 96.02684597358515 3.0
  endloop
endfacet
facet normal -0.0 1.0 0.0
  outer loop
    vertex 97.09025118015894 96.02684597358515 3.0
    vertex 81.04025118015896 96.02684597358515 5.0
    vertex 97.09025118015894 96.02684597358515 5.0
  endloop
endfacet
facet normal 1.0 0.0 0.0
  outer loop
    vertex 121.09025118015894 98.16974899427684 3.0
    vertex 121.09025118015894 72.96974899427681 5.0
    vertex 121.09025118015894 72.96974899427681 3.0
  endloop
endfacet
facet normal 1.0 0.0 0.0
  outer loop
    vertex 121.09025118015894 72.96974899427681 5.0
    vertex 121.09025118015894 98.16974899427684 3.0
    vertex 121.09025118015894 98.16974899427684 5.0
  endloop
endfacet
facet normal -0.0 -1.0 -0.0
  outer loop
    vertex 121.09025118015894 72.96974899427681 5.0
    vertex 97.09025118015894 72.96974899427681 3.0
    vertex 121.09025118015894 72.96974899427681 3.0
  endloop
endfacet
facet normal -0.0 -1.0 -0.0
  outer loop
    vertex 97.09025118015894 72.96974899427681 3.0
    vertex 121.09025118015894 72.96974899427681 5.0
    vertex 97.09025118015894 72.96974899427681 5.0
  endloop
endfacet
facet normal -0.9807852804032303 0.19509032201612966 -2.203362929256359e-17
  outer loop
    vertex 129.09025118015896 85.56974899427681 35.0
    vertex 127.56784183038468 77.91608034697501 5.0
    vertex 127.56784183038468 77.91608034697501 35.0
  endloop
endfacet
facet normal -0.9807852804032303 0.19509032201612966 -2.203362929256359e-17
  outer loop
    vertex 127.56784183038468 77.91608034697501 5.0
    vertex 129.09025118015896 85.56974899427681 35.0
    vertex 129.09025118015896 85.56974899427681 5.0
  endloop
endfacet
facet normal -0.19509032201612825 0.9807852804032304 -4.382761364549613e-18
  outer loop
    vertex 109.09025118015894 65.5697489942768 35.0
    vertex 116.74391982746074 67.09215834405107 5.0
    vertex 109.09025118015894 65.5697489942768 5.0
  endloop
endfacet
facet normal -0.19509032201612825 0.9807852804032304 -4.382761364549613e-18
  outer loop
    vertex 116.74391982746074 67.09215834405107 5.0
    vertex 109.09025118015894 65.5697489942768 35.0
    vertex 116.74391982746074 67.09215834405107 35.0
  endloop
endfacet
facet normal 0.0 0.0 -1.0
  outer loop
    vertex 121.09025118015894 98.16974899427684 3.0
    vertex 97.09025118015894 96.02684597358515 3.0
    vertex 97.09025118015894 98.16974899427684 3.0
  endloop
endfacet
facet normal 0.0 0.0 -1.0
  outer loop
    vertex 97.09025118015894 96.02684597358515 3.0
    vertex 121.09025118015894 98.16974899427684 3.0
    vertex 97.09025118015894 74.57906200297153 3.0
  endloop
endfacet
facet normal 0.0 0.0 -1.0
  outer loop
    vertex 97.09025118015894 74.57906200297153 3.0
    vertex 121.09025118015894 98.16974899427684 3.0
    vertex 97.09025118015894 72.96974899427681 3.0
  endloop
endfacet
facet normal 0.0 0.0 -1.0
  outer loop
    vertex 97.09025118015894 72.96974899427681 3.0
    vertex 121.09025118015894 98.16974899427684 3.0
    vertex 121.09025118015894 72.96974899427681 3.0
  endloop
endfacet
facet normal 0.0 0.0 -1.0
  outer loop
    vertex 97.09025118015894 96.02684597358515 3.0
    vertex 81.04025118015896 74.57906200297153 3.0
    vertex 81.04025118015896 96.02684597358515 3.0
  endloop
endfacet
facet normal 0.0 0.0 -1.0
  outer loop
    vertex 81.04025118015896 74.57906200297153 3.0
    vertex 97.09025118015894 96.02684597358515 3.0
    vertex 97.09025118015894 74.57906200297153 3.0
  endloop
endfacet
facet normal -0.0 -1.0 -0.0
  outer loop
    vertex 97.09025118015894 74.57906200297153 5.0
    vertex 81.04025118015896 74.57906200297153 3.0
    vertex 97.09025118015894 74.57906200297153 3.0
  endloop
endfacet
facet normal -0.0 -1.0 -0.0
  outer loop
    vertex 81.04025118015896 74.57906200297153 3.0
    vertex 97.09025118015894 74.57906200297153 5.0
    vertex 81.04025118015896 74.57906200297153 5.0
  endloop
endfacet
facet normal -1.0 0.0 0.0
  outer loop
    vertex 97.09025118015894 98.16974899427684 5.0
    vertex 97.09025118015894 96.02684597358515 3.0
    vertex 97.09025118015894 96.02684597358515 5.0
  endloop
endfacet
facet normal -1.0 0.0 0.0
  outer loop
    vertex 97.09025118015894 96.02684597358515 3.0
    vertex 97.09025118015894 98.16974899427684 5.0
    vertex 97.09025118015894 98.16974899427684 3.0
  endloop
endfacet
facet normal -1.0 0.0 0.0
  outer loop
    vertex 97.09025118015894 74.57906200297153 5.0
    vertex 97.09025118015894 72.96974899427681 3.0
    vertex 97.09025118015894 72.96974899427681 5.0
  endloop
endfacet
facet normal -1.0 0.0 0.0
  outer loop
    vertex 97.09025118015894 72.96974899427681 3.0
    vertex 97.09025118015894 74.57906200297153 5.0
    vertex 97.09025118015894 74.57906200297153 3.0
  endloop
endfacet
facet normal -0.8314696123025462 0.5555702330196007 -1.8679208968117723e-17
  outer loop
    vertex 127.56784183038468 77.91608034697501 35.0
    vertex 123.23238680388991 71.42761337054586 5.0
    vertex 123.23238680388991 71.42761337054586 35.0
  endloop
endfacet
facet normal -0.8314696123025462 0.5555702330196007 -1.8679208968117723e-17
  outer loop
    vertex 123.23238680388991 71.42761337054586 5.0
    vertex 127.56784183038468 77.91608034697501 35.0
    vertex 127.56784183038468 77.91608034697501 5.0
  endloop
endfacet
facet normal -0.0 1.0 0.0
  outer loop
    vertex 97.09025118015894 98.16974899427684 5.0
    vertex 121.09025118015894 98.16974899427684 3.0
    vertex 97.09025118015894 98.16974899427684 3.0
  endloop
endfacet
facet normal -0.0 1.0 0.0
  outer loop
    vertex 121.09025118015894 98.16974899427684 3.0
    vertex 97.09025118015894 98.16974899427684 5.0
    vertex 121.09025118015894 98.16974899427684 5.0
  endloop
endfacet
facet normal 0.19509032201612714 -0.9807852804032308 4.382761364549589e-18
  outer loop
    vertex 109.09025118015894 105.56974899427682 35.0
    vertex 101.43658253285717 104.04733964450256 5.0
    vertex 109.09025118015894 105.56974899427682 5.0
  endloop
endfacet
facet normal 0.19509032201612714 -0.9807852804032308 4.382761364549589e-18
  outer loop
    vertex 101.43658253285717 104.04733964450256 5.0
    vertex 109.09025118015894 105.56974899427682 35.0
    vertex 101.43658253285717 104.04733964450256 35.0
  endloop
endfacet
facet normal -0.19509032201612966 -0.9807852804032303 -4.382761364549622e-18
  outer loop
    vertex 116.74391982746074 104.04733964450254 35.0
    vertex 109.09025118015894 105.56974899427682 5.0
    vertex 116.74391982746074 104.04733964450254 5.0
  endloop
endfacet
facet normal -0.19509032201612966 -0.9807852804032303 -4.382761364549622e-18
  outer loop
    vertex 109.09025118015894 105.56974899427682 5.0
    vertex 116.74391982746074 104.04733964450254 35.0
    vertex 109.09025118015894 105.56974899427682 35.0
  endloop
endfacet
facet normal -0.5555702330196011 -0.8314696123025459 -1.2481048405726797e-17
  outer loop
    vertex 123.23238680388991 99.71188461800776 35.0
    vertex 116.74391982746074 104.04733964450254 5.0
    vertex 123.23238680388991 99.71188461800776 5.0
  endloop
endfacet
facet normal -0.5555702330196011 -0.8314696123025459 -1.2481048405726797e-17
  outer loop
    vertex 116.74391982746074 104.04733964450254 5.0
    vertex 123.23238680388991 99.71188461800776 35.0
    vertex 116.74391982746074 104.04733964450254 35.0
  endloop
endfacet
facet normal -0.8314696123025462 -0.5555702330196007 -1.8679208968117714e-17
  outer loop
    vertex 123.23238680388991 99.71188461800776 35.0
    vertex 127.56784183038468 93.2234176415786 5.0
    vertex 127.56784183038468 93.2234176415786 35.0
  endloop
endfacet
facet normal -0.8314696123025462 -0.5555702330196007 -1.8679208968117714e-17
  outer loop
    vertex 127.56784183038468 93.2234176415786 5.0
    vertex 123.23238680388991 99.71188461800776 35.0
    vertex 123.23238680388991 99.71188461800776 5.0
  endloop
endfacet
facet normal -0.9807852804032303 -0.19509032201612966 -2.2033629292563583e-17
  outer loop
    vertex 127.56784183038468 93.2234176415786 35.0
    vertex 129.09025118015896 85.56974899427681 5.0
    vertex 129.09025118015896 85.56974899427681 35.0
  endloop
endfacet
facet normal -0.9807852804032303 -0.19509032201612966 -2.2033629292563583e-17
  outer loop
    vertex 129.09025118015896 85.56974899427681 5.0
    vertex 127.56784183038468 93.2234176415786 35.0
    vertex 127.56784183038468 93.2234176415786 5.0
  endloop
endfacet
facet normal -0.0 1.0 0.0
  outer loop
    vertex 81.04025118015896 113.61974899427682 5.0
    vertex 104.19025118015895 113.61974899427682 0.0
    vertex 81.04025118015896 113.61974899427682 0.0
  endloop
endfacet
facet normal -0.0 1.0 0.0
  outer loop
    vertex 104.19025118015895 113.61974899427682 0.0
    vertex 81.04025118015896 113.61974899427682 5.0
    vertex 104.19025118015895 113.61974899427682 5.0
  endloop
endfacet
facet normal -0.0 1.0 0.0
  outer loop
    vertex 104.19025118015895 123.41974899427686 5.0
    vertex 113.99025118015896 123.41974899427686 0.0
    vertex 104.19025118015895 123.41974899427686 0.0
  endloop
endfacet
facet normal -0.0 1.0 0.0
  outer loop
    vertex 113.99025118015896 123.41974899427686 0.0
    vertex 104.19025118015895 123.41974899427686 5.0
    vertex 113.99025118015896 123.41974899427686 5.0
  endloop
endfacet
facet normal -1.0 0.0 0.0
  outer loop
    vertex 104.19025118015895 123.41974899427686 5.0
    vertex 104.19025118015895 113.61974899427682 0.0
    vertex 104.19025118015895 113.61974899427682 5.0
  endloop
endfacet
facet normal -1.0 0.0 0.0
  outer loop
    vertex 104.19025118015895 113.61974899427682 0.0
    vertex 104.19025118015895 123.41974899427686 5.0
    vertex 104.19025118015895 123.41974899427686 0.0
  endloop
endfacet
facet normal -1.8575850101664852e-17 -2.857530014067517e-19 1.0
  outer loop
    vertex 101.43658253285716 67.09215834405107 5.0
    vertex 97.09025118015894 72.96974899427681 5.0
    vertex 94.948115556428 71.42761337054586 5.0
  endloop
endfacet
facet normal -1.8575850101664852e-17 -2.857530014067517e-19 1.0
  outer loop
    vertex 97.09025118015894 72.96974899427681 5.0
    vertex 101.43658253285716 67.09215834405107 5.0
    vertex 121.09025118015894 72.96974899427681 5.0
  endloop
endfacet
facet normal -1.8575850101664852e-17 -2.857530014067517e-19 1.0
  outer loop
    vertex 121.09025118015894 72.96974899427681 5.0
    vertex 101.43658253285716 67.09215834405107 5.0
    vertex 109.09025118015894 65.5697489942768 5.0
  endloop
endfacet
facet normal -1.8575850101664852e-17 -2.857530014067517e-19 1.0
  outer loop
    vertex 121.09025118015894 72.96974899427681 5.0
    vertex 109.09025118015894 65.5697489942768 5.0
    vertex 116.74391982746074 67.09215834405107 5.0
  endloop
endfacet
facet normal -1.8575850101664852e-17 -2.857530014067517e-19 1.0
  outer loop
    vertex 121.09025118015894 72.96974899427681 5.0
    vertex 116.74391982746074 67.09215834405107 5.0
    vertex 123.23238680388991 71.42761337054586 5.0
  endloop
endfacet
facet normal -1.8575850101664852e-17 -2.857530014067517e-19 1.0
  outer loop
    vertex 121.09025118015894 72.96974899427681 5.0
    vertex 123.23238680388991 71.42761337054586 5.0
    vertex 121.09025118015894 98.16974899427684 5.0
  endloop
endfacet
facet normal -1.8575850101664852e-17 -2.857530014067517e-19 1.0
  outer loop
    vertex 97.09025118015894 96.02684597358515 5.0
    vertex 81.04025118015896 113.61974899427682 5.0
    vertex 81.04025118015896 96.02684597358515 5.0
  endloop
endfacet
facet normal -1.8575850101664852e-17 -2.857530014067517e-19 1.0
  outer loop
    vertex 81.04025118015896 113.61974899427682 5.0
    vertex 97.09025118015894 96.02684597358515 5.0
    vertex 92.93286123004634 101.72713894438942 5.0
  endloop
endfacet
facet normal -1.8575850101664852e-17 -2.857530014067517e-19 1.0
  outer loop
    vertex 92.93286123004634 101.72713894438942 5.0
    vertex 97.09025118015894 96.02684597358515 5.0
    vertex 94.948115556428 99.71188461800777 5.0
  endloop
endfacet
facet normal -1.8575850101664852e-17 -2.857530014067517e-19 1.0
  outer loop
    vertex 94.948115556428 99.71188461800777 5.0
    vertex 97.09025118015894 96.02684597358515 5.0
    vertex 97.09025118015894 98.16974899427684 5.0
  endloop
endfacet
facet normal -1.8575850101664852e-17 -2.857530014067517e-19 1.0
  outer loop
    vertex 94.948115556428 99.71188461800777 5.0
    vertex 97.09025118015894 98.16974899427684 5.0
    vertex 101.43658253285717 104.04733964450256 5.0
  endloop
endfacet
facet normal -1.8575850101664852e-17 -2.857530014067517e-19 1.0
  outer loop
    vertex 101.43658253285717 104.04733964450256 5.0
    vertex 97.09025118015894 98.16974899427684 5.0
    vertex 121.09025118015894 98.16974899427684 5.0
  endloop
endfacet
facet normal -1.8575850101664852e-17 -2.857530014067517e-19 1.0
  outer loop
    vertex 101.43658253285717 104.04733964450256 5.0
    vertex 121.09025118015894 98.16974899427684 5.0
    vertex 109.09025118015894 105.56974899427682 5.0
  endloop
endfacet
facet normal -1.8575850101664852e-17 -2.857530014067517e-19 1.0
  outer loop
    vertex 109.09025118015894 105.56974899427682 5.0
    vertex 121.09025118015894 98.16974899427684 5.0
    vertex 116.74391982746074 104.04733964450254 5.0
  endloop
endfacet
facet normal -1.8575850101664852e-17 -2.857530014067517e-19 1.0
  outer loop
    vertex 116.74391982746074 104.04733964450254 5.0
    vertex 121.09025118015894 98.16974899427684 5.0
    vertex 123.23238680388991 99.71188461800776 5.0
  endloop
endfacet
facet normal -1.8575850101664852e-17 -2.857530014067517e-19 1.0
  outer loop
    vertex 123.23238680388991 99.71188461800776 5.0
    vertex 121.09025118015894 98.16974899427684 5.0
    vertex 123.23238680388991 71.42761337054586 5.0
  endloop
endfacet
facet normal -1.8575850101664852e-17 -2.857530014067517e-19 1.0
  outer loop
    vertex 123.23238680388991 99.71188461800776 5.0
    vertex 123.23238680388991 71.42761337054586 5.0
    vertex 127.56784183038468 77.91608034697501 5.0
  endloop
endfacet
facet normal -1.8575850101664852e-17 -2.857530014067517e-19 1.0
  outer loop
    vertex 123.23238680388991 99.71188461800776 5.0
    vertex 127.56784183038468 77.91608034697501 5.0
    vertex 127.56784183038468 93.2234176415786 5.0
  endloop
endfacet
facet normal -1.8575850101664852e-17 -2.857530014067517e-19 1.0
  outer loop
    vertex 127.56784183038468 93.2234176415786 5.0
    vertex 127.56784183038468 77.91608034697501 5.0
    vertex 129.09025118015896 85.56974899427681 5.0
  endloop
endfacet
facet normal -1.8575850101664852e-17 -2.857530014067517e-19 1.0
  outer loop
    vertex 92.93286123004634 69.4123590441642 5.0
    vertex 97.09025118015894 74.57906200297153 5.0
    vertex 81.04025118015896 74.57906200297153 5.0
  endloop
endfacet
facet normal -1.8575850101664852e-17 -2.857530014067517e-19 1.0
  outer loop
    vertex 97.09025118015894 74.57906200297153 5.0
    vertex 92.93286123004634 69.4123590441642 5.0
    vertex 94.948115556428 71.42761337054586 5.0
  endloop
endfacet
facet normal -1.8575850101664852e-17 -2.857530014067517e-19 1.0
  outer loop
    vertex 97.09025118015894 74.57906200297153 5.0
    vertex 94.948115556428 71.42761337054586 5.0
    vertex 97.09025118015894 72.96974899427681 5.0
  endloop
endfacet
facet normal -1.8575850101664852e-17 -2.857530014067517e-19 1.0
  outer loop
    vertex 113.99025118015896 47.71974899427681 5.0
    vertex 104.19025118015895 57.519748994276824 5.0
    vertex 104.19025118015895 47.71974899427681 5.0
  endloop
endfacet
facet normal -1.8575850101664852e-17 -2.857530014067517e-19 1.0
  outer loop
    vertex 104.19025118015895 57.519748994276824 5.0
    vertex 113.99025118015896 47.71974899427681 5.0
    vertex 109.09025118015894 62.71974899427682 5.000000000000002
  endloop
endfacet
facet normal -1.8575850101664852e-17 -2.857530014067517e-19 1.0
  outer loop
    vertex 109.09025118015894 62.71974899427682 5.000000000000002
    vertex 113.99025118015896 47.71974899427681 5.0
    vertex 113.99025118015896 57.51974899427682 5.0
  endloop
endfacet
facet normal -1.8575850101664852e-17 -2.857530014067517e-19 1.0
  outer loop
    vertex 109.09025118015894 62.71974899427682 5.000000000000002
    vertex 113.99025118015896 57.51974899427682 5.0
    vertex 117.83456760970125 64.45910167639391 5.000000000000002
  endloop
endfacet
facet normal -1.8575850101664852e-17 -2.857530014067517e-19 1.0
  outer loop
    vertex 117.83456760970125 64.45910167639391 5.000000000000002
    vertex 113.99025118015896 57.51974899427682 5.0
    vertex 137.14025118015894 57.51974899427682 5.0
  endloop
endfacet
facet normal -1.8575850101664852e-17 -2.857530014067517e-19 1.0
  outer loop
    vertex 117.83456760970125 64.45910167639391 5.000000000000002
    vertex 137.14025118015894 57.51974899427682 5.0
    vertex 125.24764113027156 69.4123590441642 5.000000000000002
  endloop
endfacet
facet normal -1.8575850101664852e-17 -2.857530014067517e-19 1.0
  outer loop
    vertex 125.24764113027156 69.4123590441642 5.000000000000002
    vertex 137.14025118015894 57.51974899427682 5.0
    vertex 130.20089849804185 76.82543256473451 5.000000000000002
  endloop
endfacet
facet normal -1.8575850101664852e-17 -2.857530014067517e-19 1.0
  outer loop
    vertex 130.20089849804185 76.82543256473451 5.000000000000002
    vertex 137.14025118015894 57.51974899427682 5.0
    vertex 131.94025118015895 85.56974899427681 5.000000000000002
  endloop
endfacet
facet normal -1.8575850101664852e-17 -2.857530014067517e-19 1.0
  outer loop
    vertex 117.83456760970125 106.6803963121597 5.000000000000002
    vertex 113.99025118015896 113.61974899427679 5.0
    vertex 109.09025118015894 108.4197489942768 5.000000000000002
  endloop
endfacet
facet normal -1.8575850101664852e-17 -2.857530014067517e-19 1.0
  outer loop
    vertex 113.99025118015896 113.61974899427679 5.0
    vertex 117.83456760970125 106.6803963121597 5.000000000000002
    vertex 137.14025118015894 113.61974899427682 5.0
  endloop
endfacet
facet normal -1.8575850101664852e-17 -2.857530014067517e-19 1.0
  outer loop
    vertex 137.14025118015894 113.61974899427682 5.0
    vertex 117.83456760970125 106.6803963121597 5.000000000000002
    vertex 125.24764113027156 101.72713894438942 5.000000000000002
  endloop
endfacet
facet normal -1.8575850101664852e-17 -2.857530014067517e-19 1.0
  outer loop
    vertex 137.14025118015894 113.61974899427682 5.0
    vertex 125.24764113027156 101.72713894438942 5.000000000000002
    vertex 130.20089849804185 94.3140654238191 5.000000000000002
  endloop
endfacet
facet normal -1.8575850101664852e-17 -2.857530014067517e-19 1.0
  outer loop
    vertex 137.14025118015894 113.61974899427682 5.0
    vertex 130.20089849804185 94.3140654238191 5.000000000000002
    vertex 131.94025118015895 85.56974899427681 5.000000000000002
  endloop
endfacet
facet normal -1.8575850101664852e-17 -2.857530014067517e-19 1.0
  outer loop
    vertex 137.14025118015894 113.61974899427682 5.0
    vertex 131.94025118015895 85.56974899427681 5.000000000000002
    vertex 137.14025118015894 57.51974899427682 5.0
  endloop
endfacet
facet normal -1.8575850101664852e-17 -2.857530014067517e-19 1.0
  outer loop
    vertex 92.93286123004634 101.72713894438942 5.0
    vertex 104.19025118015895 113.61974899427682 5.0
    vertex 81.04025118015896 113.61974899427682 5.0
  endloop
endfacet
facet normal -1.8575850101664852e-17 -2.857530014067517e-19 1.0
  outer loop
    vertex 104.19025118015895 113.61974899427682 5.0
    vertex 92.93286123004634 101.72713894438942 5.0
    vertex 100.34593475061666 106.68039631215971 5.000000000000002
  endloop
endfacet
facet normal -1.8575850101664852e-17 -2.857530014067517e-19 1.0
  outer loop
    vertex 104.19025118015895 113.61974899427682 5.0
    vertex 100.34593475061666 106.68039631215971 5.000000000000002
    vertex 109.09025118015894 108.4197489942768 5.000000000000002
  endloop
endfacet
facet normal -1.8575850101664852e-17 -2.857530014067517e-19 1.0
  outer loop
    vertex 104.19025118015895 113.61974899427682 5.0
    vertex 109.09025118015894 108.4197489942768 5.000000000000002
    vertex 104.19025118015895 123.41974899427686 5.0
  endloop
endfacet
facet normal -1.8575850101664852e-17 -2.857530014067517e-19 1.0
  outer loop
    vertex 104.19025118015895 123.41974899427686 5.0
    vertex 109.09025118015894 108.4197489942768 5.000000000000002
    vertex 113.99025118015896 123.41974899427686 5.0
  endloop
endfacet
facet normal -1.8575850101664852e-17 -2.857530014067517e-19 1.0
  outer loop
    vertex 113.99025118015896 123.41974899427686 5.0
    vertex 109.09025118015894 108.4197489942768 5.000000000000002
    vertex 113.99025118015896 113.61974899427679 5.0
  endloop
endfacet
facet normal -1.8575850101664852e-17 -2.857530014067517e-19 1.0
  outer loop
    vertex 104.19025118015895 57.519748994276824 5.0
    vertex 81.04025118015896 74.57906200297153 5.0
    vertex 81.04025118015896 57.51974899427682 5.0
  endloop
endfacet
facet normal -1.8575850101664852e-17 -2.857530014067517e-19 1.0
  outer loop
    vertex 81.04025118015896 74.57906200297153 5.0
    vertex 104.19025118015895 57.519748994276824 5.0
    vertex 92.93286123004634 69.4123590441642 5.0
  endloop
endfacet
facet normal -1.8575850101664852e-17 -2.857530014067517e-19 1.0
  outer loop
    vertex 92.93286123004634 69.4123590441642 5.0
    vertex 104.19025118015895 57.519748994276824 5.0
    vertex 100.34593475061665 64.45910167639391 5.000000000000002
  endloop
endfacet
facet normal -1.8575850101664852e-17 -2.857530014067517e-19 1.0
  outer loop
    vertex 100.34593475061665 64.45910167639391 5.000000000000002
    vertex 104.19025118015895 57.519748994276824 5.0
    vertex 109.09025118015894 62.71974899427682 5.000000000000002
  endloop
endfacet
facet normal 1.0 0.0 0.0
  outer loop
    vertex 113.99025118015896 123.41974899427686 0.0
    vertex 113.99025118015896 113.61974899427679 5.0
    vertex 113.99025118015896 113.61974899427679 0.0
  endloop
endfacet
facet normal 1.0 0.0 0.0
  outer loop
    vertex 113.99025118015896 113.61974899427679 5.0
    vertex 113.99025118015896 123.41974899427686 0.0
    vertex 113.99025118015896 123.41974899427686 5.0
  endloop
endfacet
facet normal 1.0 0.0 0.0
  outer loop
    vertex 113.99025118015896 57.51974899427682 0.0
    vertex 113.99025118015896 47.71974899427681 5.0
    vertex 113.99025118015896 47.71974899427681 0.0
  endloop
endfacet
facet normal 1.0 0.0 0.0
  outer loop
    vertex 113.99025118015896 47.71974899427681 5.0
    vertex 113.99025118015896 57.51974899427682 0.0
    vertex 113.99025118015896 57.51974899427682 5.0
  endloop
endfacet
facet normal -0.0 -1.0 -0.0
  outer loop
    vertex 113.99025118015896 47.71974899427681 5.0
    vertex 104.19025118015895 47.71974899427681 0.0
    vertex 113.99025118015896 47.71974899427681 0.0
  endloop
endfacet
facet normal -0.0 -1.0 -0.0
  outer loop
    vertex 104.19025118015895 47.71974899427681 0.0
    vertex 113.99025118015896 47.71974899427681 5.0
    vertex 104.19025118015895 47.71974899427681 5.0
  endloop
endfacet
facet normal 4.872512280860297e-16 -1.0 0.0
  outer loop
    vertex 104.19025118015895 57.519748994276824 5.0
    vertex 81.04025118015896 57.51974899427682 0.0
    vertex 104.19025118015895 57.519748994276824 0.0
  endloop
endfacet
facet normal 4.872512280860297e-16 -1.0 0.0
  outer loop
    vertex 81.04025118015896 57.51974899427682 0.0
    vertex 104.19025118015895 57.519748994276824 5.0
    vertex 81.04025118015896 57.51974899427682 5.0
  endloop
endfacet
facet normal -1.0 0.0 0.0
  outer loop
    vertex 104.19025118015895 57.519748994276824 5.0
    vertex 104.19025118015895 47.71974899427681 0.0
    vertex 104.19025118015895 47.71974899427681 5.0
  endloop
endfacet
facet normal -1.0 0.0 0.0
  outer loop
    vertex 104.19025118015895 47.71974899427681 0.0
    vertex 104.19025118015895 57.519748994276824 5.0
    vertex 104.19025118015895 57.519748994276824 0.0
  endloop
endfacet
facet normal -1.0 0.0 0.0
  outer loop
    vertex 81.04025118015896 113.61974899427682 5.0
    vertex 81.04025118015896 96.02684597358515 3.0
    vertex 81.04025118015896 96.02684597358515 5.0
  endloop
endfacet
facet normal -1.0 0.0 0.0
  outer loop
    vertex 81.04025118015896 74.57906200297153 5.0
    vertex 81.04025118015896 57.51974899427682 0.0
    vertex 81.04025118015896 57.51974899427682 5.0
  endloop
endfacet
facet normal -1.0 0.0 0.0
  outer loop
    vertex 81.04025118015896 57.51974899427682 0.0
    vertex 81.04025118015896 74.57906200297153 5.0
    vertex 81.04025118015896 74.57906200297153 3.0
  endloop
endfacet
facet normal -1.0 0.0 0.0
  outer loop
    vertex 81.04025118015896 57.51974899427682 0.0
    vertex 81.04025118015896 74.57906200297153 3.0
    vertex 81.04025118015896 113.61974899427682 0.0
  endloop
endfacet
facet normal -1.0 0.0 0.0
  outer loop
    vertex 81.04025118015896 113.61974899427682 0.0
    vertex 81.04025118015896 74.57906200297153 3.0
    vertex 81.04025118015896 96.02684597358515 3.0
  endloop
endfacet
facet normal -1.0 0.0 0.0
  outer loop
    vertex 81.04025118015896 113.61974899427682 0.0
    vertex 81.04025118015896 96.02684597358515 3.0
    vertex 81.04025118015896 113.61974899427682 5.0
  endloop
endfacet
facet normal -9.7450245617206e-16 1.0 0.0
  outer loop
    vertex 113.99025118015896 113.61974899427679 5.0
    vertex 137.14025118015894 113.61974899427682 0.0
    vertex 113.99025118015896 113.61974899427679 0.0
  endloop
endfacet
facet normal -9.7450245617206e-16 1.0 0.0
  outer loop
    vertex 137.14025118015894 113.61974899427682 0.0
    vertex 113.99025118015896 113.61974899427679 5.0
    vertex 137.14025118015894 113.61974899427682 5.0
  endloop
endfacet
facet normal -0.0 -1.0 -0.0
  outer loop
    vertex 137.14025118015894 57.51974899427682 5.0
    vertex 113.99025118015896 57.51974899427682 0.0
    vertex 137.14025118015894 57.51974899427682 0.0
  endloop
endfacet
facet normal -0.0 -1.0 -0.0
  outer loop
    vertex 113.99025118015896 57.51974899427682 0.0
    vertex 137.14025118015894 57.51974899427682 5.0
    vertex 113.99025118015896 57.51974899427682 5.0
  endloop
endfacet
facet normal 1.0 0.0 0.0
  outer loop
    vertex 137.14025118015894 113.61974899427682 0.0
    vertex 137.14025118015894 57.51974899427682 5.0
    vertex 137.14025118015894 57.51974899427682 0.0
  endloop
endfacet
facet normal 1.0 0.0 0.0
  outer loop
    vertex 137.14025118015894 57.51974899427682 5.0
    vertex 137.14025118015894 113.61974899427682 0.0
    vertex 137.14025118015894 113.61974899427682 5.0
  endloop
endfacet
endsolid RaspiUpper
