solid RaspiBotskp
facet normal -0.9338916294033578 -0.35755618373948117 5.33558397541502e-16
  outer loop
    vertex 96.72156850467681 159.17322419953257 9.999999999999908
    vertex 97.73953435518231 156.514425862267 4.999999999999907
    vertex 97.73953435518231 156.514425862267 9.999999999999908
  endloop
endfacet
facet normal -0.9338916294033578 -0.35755618373948117 5.33558397541502e-16
  outer loop
    vertex 97.73953435518231 156.514425862267 4.999999999999907
    vertex 96.72156850467681 159.17322419953257 9.999999999999908
    vertex 96.72156850467681 159.17322419953257 4.999999999999907
  endloop
endfacet
facet normal 0.35755618373948117 -0.9338916294033578 1.429665417360886e-16
  outer loop
    vertex 91.6990152204567 161.41464305980162 9.999999999999908
    vertex 89.04021688319115 160.39667720929612 4.999999999999909
    vertex 91.6990152204567 161.41464305980162 4.9999999999999085
  endloop
endfacet
facet normal 0.35755618373948117 -0.9338916294033578 1.429665417360886e-16
  outer loop
    vertex 89.04021688319115 160.39667720929612 4.999999999999909
    vertex 91.6990152204567 161.41464305980162 9.999999999999908
    vertex 89.04021688319115 160.39667720929612 9.99999999999991
  endloop
endfacet
facet normal 0.9875519673146906 -0.15729307630307351 -3.9059185580541245e-16
  outer loop
    vertex 87.24661290483209 158.18569375394054 4.999999999999911
    vertex 86.7987980229221 155.374123925076 9.999999999999913
    vertex 86.7987980229221 155.374123925076 4.999999999999913
  endloop
endfacet
facet normal 0.9875519673146906 -0.15729307630307351 -3.9059185580541245e-16
  outer loop
    vertex 86.7987980229221 155.374123925076 9.999999999999913
    vertex 87.24661290483209 158.18569375394054 4.999999999999911
    vertex 87.24661290483209 158.18569375394054 9.999999999999911
  endloop
endfacet
facet normal -0.15729307630307351 -0.9875519673146906 3.9059185580541275e-16
  outer loop
    vertex 94.51058504932125 160.9668281778916 9.999999999999908
    vertex 91.6990152204567 161.41464305980162 4.9999999999999085
    vertex 94.51058504932125 160.9668281778916 4.999999999999907
  endloop
endfacet
facet normal -0.15729307630307351 -0.9875519673146906 3.9059185580541275e-16
  outer loop
    vertex 91.6990152204567 161.41464305980162 4.9999999999999085
    vertex 94.51058504932125 160.9668281778916 9.999999999999908
    vertex 91.6990152204567 161.41464305980162 9.999999999999908
  endloop
endfacet
facet normal 0.9338916294033578 0.35755618373948117 -5.33558397541502e-16
  outer loop
    vertex 86.7987980229221 155.374123925076 4.999999999999913
    vertex 87.81676387342759 152.71532558781044 9.999999999999913
    vertex 87.81676387342759 152.71532558781044 4.999999999999913
  endloop
endfacet
facet normal 0.9338916294033578 0.35755618373948117 -5.33558397541502e-16
  outer loop
    vertex 87.81676387342759 152.71532558781044 9.999999999999913
    vertex 86.7987980229221 155.374123925076 4.999999999999913
    vertex 86.7987980229221 155.374123925076 9.999999999999913
  endloop
endfacet
facet normal -0.6299957835752116 -0.7765985531002845 5.335583975415021e-16
  outer loop
    vertex 96.72156850467681 159.17322419953257 9.999999999999908
    vertex 94.51058504932125 160.9668281778916 4.999999999999907
    vertex 96.72156850467681 159.17322419953257 4.999999999999907
  endloop
endfacet
facet normal -0.6299957835752116 -0.7765985531002845 5.335583975415021e-16
  outer loop
    vertex 94.51058504932125 160.9668281778916 4.999999999999907
    vertex 96.72156850467681 159.17322419953257 9.999999999999908
    vertex 94.51058504932125 160.9668281778916 9.999999999999908
  endloop
endfacet
facet normal 0.7765985531002845 -0.6299957835752116 -1.4296654173608876e-16
  outer loop
    vertex 89.04021688319115 160.39667720929612 4.999999999999909
    vertex 87.24661290483209 158.18569375394054 9.999999999999911
    vertex 87.24661290483209 158.18569375394054 4.999999999999911
  endloop
endfacet
facet normal 0.7765985531002845 -0.6299957835752116 -1.4296654173608876e-16
  outer loop
    vertex 87.24661290483209 158.18569375394054 9.999999999999911
    vertex 89.04021688319115 160.39667720929612 4.999999999999909
    vertex 89.04021688319115 160.39667720929612 9.99999999999991
  endloop
endfacet
facet normal -0.7765985531002845 0.6299957835752116 1.4296654173608876e-16
  outer loop
    vertex 97.29171947327231 153.70285603340244 9.999999999999908
    vertex 95.49811549491326 151.4918725780469 4.999999999999909
    vertex 95.49811549491326 151.4918725780469 9.99999999999991
  endloop
endfacet
facet normal -0.7765985531002845 0.6299957835752116 1.4296654173608876e-16
  outer loop
    vertex 95.49811549491326 151.4918725780469 4.999999999999909
    vertex 97.29171947327231 153.70285603340244 9.999999999999908
    vertex 97.29171947327231 153.70285603340244 4.9999999999999085
  endloop
endfacet
facet normal -0.9875519673146906 0.15729307630307351 3.9059185580541245e-16
  outer loop
    vertex 97.73953435518231 156.514425862267 9.999999999999908
    vertex 97.29171947327231 153.70285603340244 4.9999999999999085
    vertex 97.29171947327231 153.70285603340244 9.999999999999908
  endloop
endfacet
facet normal -0.9875519673146906 0.15729307630307351 3.9059185580541245e-16
  outer loop
    vertex 97.29171947327231 153.70285603340244 4.9999999999999085
    vertex 97.73953435518231 156.514425862267 9.999999999999908
    vertex 97.73953435518231 156.514425862267 4.999999999999907
  endloop
endfacet
facet normal -0.4999999999999996 0.8660254037844388 0.0
  outer loop
    vertex 22.269166189052232 138.25518783721392 9.99999999999991
    vertex 92.26916618905221 178.66970668048768 -9.023892744153272e-14
    vertex 22.269166189052232 138.25518783721392 -9.023892744153272e-14
  endloop
endfacet
facet normal -0.4999999999999996 0.8660254037844388 0.0
  outer loop
    vertex 92.26916618905221 178.66970668048768 -9.023892744153272e-14
    vertex 22.269166189052232 138.25518783721392 9.99999999999991
    vertex 92.26916618905221 178.66970668048768 9.99999999999991
  endloop
endfacet
facet normal 4.904289534865915e-16 1.0 0.0
  outer loop
    vertex 42.27955186233515 68.94427489367145 9.99999999999991
    vertex 134.279551862335 68.9442748936714 4.999999999999909
    vertex 42.27955186233515 68.94427489367145 4.999999999999909
  endloop
endfacet
facet normal 4.904289534865915e-16 1.0 0.0
  outer loop
    vertex 134.279551862335 68.9442748936714 4.999999999999909
    vertex 42.27955186233515 68.94427489367145 9.99999999999991
    vertex 134.279551862335 68.9442748936714 9.99999999999991
  endloop
endfacet
facet normal -1.0 -5.308172202443104e-15 -0.0
  outer loop
    vertex 134.2795518623349 125.94427489367146 9.99999999999991
    vertex 134.27955186233498 108.94427489367148 4.999999999999909
    vertex 134.27955186233498 108.94427489367148 9.99999999999991
  endloop
endfacet
facet normal -1.0 -5.308172202443104e-15 -0.0
  outer loop
    vertex 134.27955186233498 108.94427489367148 4.999999999999909
    vertex 134.2795518623349 125.94427489367146 9.99999999999991
    vertex 134.2795518623349 125.94427489367146 4.999999999999909
  endloop
endfacet
facet normal 0.5000000000000006 0.8660254037844383 0.0
  outer loop
    vertex 92.26916618905221 178.66970668048768 9.99999999999991
    vertex 162.26916618905219 138.25518783721384 -9.023892744153272e-14
    vertex 92.26916618905221 178.66970668048768 -9.023892744153272e-14
  endloop
endfacet
facet normal 0.5000000000000006 0.8660254037844383 0.0
  outer loop
    vertex 162.26916618905219 138.25518783721384 -9.023892744153272e-14
    vertex 92.26916618905221 178.66970668048768 9.99999999999991
    vertex 162.26916618905219 138.25518783721384 9.99999999999991
  endloop
endfacet
facet normal -0.6864735974623861 -0.7271547290549997 -9.24150253346915e-16
  outer loop
    vertex 96.95122857113873 41.830152897026736 4.999999999999916
    vertex 94.88101215236496 43.78454974784311 9.999999999999915
    vertex 94.88101215236496 43.78454974784311 4.999999999999914
  endloop
endfacet
facet normal -0.6864735974623861 -0.7271547290549997 -9.24150253346915e-16
  outer loop
    vertex 94.88101215236496 43.78454974784311 9.999999999999915
    vertex 96.95122857113873 41.830152897026736 4.999999999999916
    vertex 96.95122857113873 41.830152897026736 9.999999999999915
  endloop
endfacet
facet normal 0.7271547290549997 -0.6864735974623861 2.476253140693226e-16
  outer loop
    vertex 89.38328818569687 43.62633727575797 4.999999999999909
    vertex 87.42889133488049 41.5561208569842 9.999999999999908
    vertex 87.42889133488049 41.5561208569842 4.999999999999907
  endloop
endfacet
facet normal 0.7271547290549997 -0.6864735974623861 2.476253140693226e-16
  outer loop
    vertex 87.42889133488049 41.5561208569842 9.999999999999908
    vertex 89.38328818569687 43.62633727575797 4.999999999999909
    vertex 89.38328818569687 43.62633727575797 9.99999999999991
  endloop
endfacet
facet normal -0.9580809389572189 -0.2864976691124275 -9.24150253346915e-16
  outer loop
    vertex 96.95122857113873 41.830152897026736 9.999999999999915
    vertex 97.76689015572026 39.102487365756566 4.999999999999914
    vertex 97.76689015572026 39.102487365756566 9.999999999999915
  endloop
endfacet
facet normal -0.9580809389572189 -0.2864976691124275 -9.24150253346915e-16
  outer loop
    vertex 97.76689015572026 39.102487365756566 4.999999999999914
    vertex 96.95122857113873 41.830152897026736 9.999999999999915
    vertex 96.95122857113873 41.830152897026736 4.999999999999916
  endloop
endfacet
facet normal -1.0 2.7910429848081424e-16 0.0
  outer loop
    vertex 22.269166189052232 138.25518783721392 9.99999999999991
    vertex 22.269166189052207 57.42615015066626 -9.023892744153272e-14
    vertex 22.269166189052207 57.42615015066626 9.99999999999991
  endloop
endfacet
facet normal -1.0 2.7910429848081424e-16 0.0
  outer loop
    vertex 22.269166189052207 57.42615015066626 -9.023892744153272e-14
    vertex 22.269166189052232 138.25518783721392 9.99999999999991
    vertex 22.269166189052232 138.25518783721392 -9.023892744153272e-14
  endloop
endfacet
facet normal 0.9454482367557029 0.32577236165078904 -2.557206982823532e-16
  outer loop
    vertex 142.79303257757712 125.55942929088859 4.499999999999913
    vertex 143.72050958477288 122.86772918274788 9.99999999999991
    vertex 143.72050958477288 122.86772918274788 4.49999999999991
  endloop
endfacet
facet normal 0.9454482367557029 0.32577236165078904 -2.557206982823532e-16
  outer loop
    vertex 143.72050958477288 122.86772918274788 9.99999999999991
    vertex 142.79303257757712 125.55942929088859 4.499999999999913
    vertex 142.79303257757712 125.55942929088859 9.999999999999913
  endloop
endfacet
facet normal 0.2864976691124275 -0.9580809389572189 -2.4762531406932355e-16
  outer loop
    vertex 92.11095371696705 44.44199886033951 4.999999999999913
    vertex 89.38328818569687 43.62633727575797 9.99999999999991
    vertex 89.38328818569687 43.62633727575797 4.999999999999909
  endloop
endfacet
facet normal 0.2864976691124275 -0.9580809389572189 -2.4762531406932355e-16
  outer loop
    vertex 89.38328818569687 43.62633727575797 9.99999999999991
    vertex 92.11095371696705 44.44199886033951 4.999999999999913
    vertex 92.11095371696705 44.44199886033951 9.999999999999913
  endloop
endfacet
facet normal 1.0 6.92623346590711e-16 0.0
  outer loop
    vertex 42.279551862335104 125.9442748936715 4.999999999999909
    vertex 42.27955186233515 68.94427489367145 9.99999999999991
    vertex 42.27955186233515 68.94427489367145 4.999999999999909
  endloop
endfacet
facet normal 1.0 6.92623346590711e-16 0.0
  outer loop
    vertex 42.27955186233515 68.94427489367145 9.99999999999991
    vertex 42.279551862335104 125.9442748936715 4.999999999999909
    vertex 42.279551862335104 125.9442748936715 9.99999999999991
  endloop
endfacet
facet normal -0.0 -1.0 -0.0
  outer loop
    vertex 162.26916618905219 108.94427489367148 9.99999999999991
    vertex 134.27955186233498 108.94427489367148 4.999999999999909
    vertex 162.26916618905219 108.94427489367148 4.999999999999909
  endloop
endfacet
facet normal -0.0 -1.0 -0.0
  outer loop
    vertex 134.27955186233498 108.94427489367148 4.999999999999909
    vertex 162.26916618905219 108.94427489367148 9.99999999999991
    vertex 134.27955186233498 108.94427489367148 9.99999999999991
  endloop
endfacet
facet normal 0.9816683718190371 -0.19059697733742015 -6.271586693863404e-16
  outer loop
    vertex 143.33566398199 128.35424846750564 4.499999999999914
    vertex 142.79303257757712 125.55942929088859 9.999999999999913
    vertex 142.79303257757712 125.55942929088859 4.499999999999913
  endloop
endfacet
facet normal 0.9816683718190371 -0.19059697733742015 -6.271586693863404e-16
  outer loop
    vertex 142.79303257757712 125.55942929088859 9.999999999999913
    vertex 143.33566398199 128.35424846750564 4.499999999999914
    vertex 143.33566398199 128.35424846750564 9.999999999999915
  endloop
endfacet
facet normal 1.0 -0.0 -0.0
  outer loop
    vertex 162.26916618905219 57.42615015066624 -9.023892744153272e-14
    vertex 162.26916618905219 79.9442748936714 4.999999999999909
    vertex 162.26916618905219 57.42615015066624 9.99999999999991
  endloop
endfacet
facet normal 1.0 -0.0 -0.0
  outer loop
    vertex 162.26916618905219 79.9442748936714 4.999999999999909
    vertex 162.26916618905219 57.42615015066624 -9.023892744153272e-14
    vertex 162.26916618905219 138.25518783721384 -9.023892744153272e-14
  endloop
endfacet
facet normal 1.0 -0.0 -0.0
  outer loop
    vertex 162.26916618905219 79.9442748936714 4.999999999999909
    vertex 162.26916618905219 138.25518783721384 -9.023892744153272e-14
    vertex 162.26916618905219 84.9442748936714 4.999999999999909
  endloop
endfacet
facet normal 1.0 -0.0 -0.0
  outer loop
    vertex 162.26916618905219 84.9442748936714 4.999999999999909
    vertex 162.26916618905219 138.25518783721384 -9.023892744153272e-14
    vertex 162.26916618905219 108.94427489367148 4.999999999999909
  endloop
endfacet
facet normal 1.0 -0.0 -0.0
  outer loop
    vertex 162.26916618905219 108.94427489367148 4.999999999999909
    vertex 162.26916618905219 138.25518783721384 -9.023892744153272e-14
    vertex 162.26916618905219 108.94427489367148 9.99999999999991
  endloop
endfacet
facet normal 1.0 -0.0 -0.0
  outer loop
    vertex 162.26916618905219 108.94427489367148 9.99999999999991
    vertex 162.26916618905219 138.25518783721384 -9.023892744153272e-14
    vertex 162.26916618905219 138.25518783721384 9.99999999999991
  endloop
endfacet
facet normal 1.0 -0.0 -0.0
  outer loop
    vertex 162.26916618905219 79.9442748936714 9.99999999999991
    vertex 162.26916618905219 57.42615015066624 9.99999999999991
    vertex 162.26916618905219 79.9442748936714 4.999999999999909
  endloop
endfacet
facet normal 1.252928286476839e-32 -2.668461211484341e-32 1.0
  outer loop
    vertex 42.279551862335104 125.9442748936715 9.99999999999991
    vertex 87.81676387342759 152.71532558781044 9.999999999999913
    vertex 86.7987980229221 155.374123925076 9.999999999999913
  endloop
endfacet
facet normal 1.252928286476839e-32 -2.668461211484341e-32 1.0
  outer loop
    vertex 87.81676387342759 152.71532558781044 9.999999999999913
    vertex 42.279551862335104 125.9442748936715 9.99999999999991
    vertex 90.02774732878315 150.9217216094514 9.999999999999913
  endloop
endfacet
facet normal 1.252928286476839e-32 -2.668461211484341e-32 1.0
  outer loop
    vertex 90.02774732878315 150.9217216094514 9.999999999999913
    vertex 42.279551862335104 125.9442748936715 9.99999999999991
    vertex 134.2795518623349 125.94427489367146 9.99999999999991
  endloop
endfacet
facet normal 1.252928286476839e-32 -2.668461211484341e-32 1.0
  outer loop
    vertex 90.02774732878315 150.9217216094514 9.999999999999913
    vertex 134.2795518623349 125.94427489367146 9.99999999999991
    vertex 92.8393171576477 150.4739067275414 9.999999999999911
  endloop
endfacet
facet normal 1.252928286476839e-32 -2.668461211484341e-32 1.0
  outer loop
    vertex 92.8393171576477 150.4739067275414 9.999999999999911
    vertex 134.2795518623349 125.94427489367146 9.99999999999991
    vertex 95.49811549491326 151.4918725780469 9.99999999999991
  endloop
endfacet
facet normal 1.252928286476839e-32 -2.668461211484341e-32 1.0
  outer loop
    vertex 95.49811549491326 151.4918725780469 9.99999999999991
    vertex 134.2795518623349 125.94427489367146 9.99999999999991
    vertex 97.29171947327231 153.70285603340244 9.999999999999908
  endloop
endfacet
facet normal 1.252928286476839e-32 -2.668461211484341e-32 1.0
  outer loop
    vertex 97.29171947327231 153.70285603340244 9.999999999999908
    vertex 134.2795518623349 125.94427489367146 9.99999999999991
    vertex 97.73953435518231 156.514425862267 9.999999999999908
  endloop
endfacet
facet normal 1.252928286476839e-32 -2.668461211484341e-32 1.0
  outer loop
    vertex 134.27955186233498 108.94427489367148 9.99999999999991
    vertex 143.72050958477288 122.86772918274788 9.99999999999991
    vertex 142.79303257757712 125.55942929088859 9.999999999999913
  endloop
endfacet
facet normal 1.252928286476839e-32 -2.668461211484341e-32 1.0
  outer loop
    vertex 143.72050958477288 122.86772918274788 9.99999999999991
    vertex 134.27955186233498 108.94427489367148 9.99999999999991
    vertex 145.86957828850072 121.00038701332659 9.999999999999908
  endloop
endfacet
facet normal 1.252928286476839e-32 -2.668461211484341e-32 1.0
  outer loop
    vertex 145.86957828850072 121.00038701332659 9.999999999999908
    vertex 134.27955186233498 108.94427489367148 9.99999999999991
    vertex 162.26916618905219 108.94427489367148 9.99999999999991
  endloop
endfacet
facet normal 1.252928286476839e-32 -2.668461211484341e-32 1.0
  outer loop
    vertex 145.86957828850072 121.00038701332659 9.999999999999908
    vertex 162.26916618905219 108.94427489367148 9.99999999999991
    vertex 148.66439746511776 120.45775560891371 9.999999999999906
  endloop
endfacet
facet normal 1.252928286476839e-32 -2.668461211484341e-32 1.0
  outer loop
    vertex 148.66439746511776 120.45775560891371 9.999999999999906
    vertex 162.26916618905219 108.94427489367148 9.99999999999991
    vertex 151.35609757325847 121.38523261610946 9.999999999999906
  endloop
endfacet
facet normal 1.252928286476839e-32 -2.668461211484341e-32 1.0
  outer loop
    vertex 151.35609757325847 121.38523261610946 9.999999999999906
    vertex 162.26916618905219 108.94427489367148 9.99999999999991
    vertex 153.22343974267974 123.5343013198373 9.999999999999906
  endloop
endfacet
facet normal 1.252928286476839e-32 -2.668461211484341e-32 1.0
  outer loop
    vertex 153.22343974267974 123.5343013198373 9.999999999999906
    vertex 162.26916618905219 108.94427489367148 9.99999999999991
    vertex 153.76607114709265 126.32912049645434 9.999999999999908
  endloop
endfacet
facet normal 1.252928286476839e-32 -2.668461211484341e-32 1.0
  outer loop
    vertex 22.269166189052232 138.25518783721392 9.99999999999991
    vertex 42.279551862335104 125.9442748936715 9.99999999999991
    vertex 92.26916618905221 178.66970668048768 9.99999999999991
  endloop
endfacet
facet normal 1.252928286476839e-32 -2.668461211484341e-32 1.0
  outer loop
    vertex 42.279551862335104 125.9442748936715 9.99999999999991
    vertex 22.269166189052232 138.25518783721392 9.99999999999991
    vertex 27.410779363306997 100.41866772385157 9.999999999999906
  endloop
endfacet
facet normal 1.252928286476839e-32 -2.668461211484341e-32 1.0
  outer loop
    vertex 27.410779363306997 100.41866772385157 9.999999999999906
    vertex 22.269166189052232 138.25518783721392 9.99999999999991
    vertex 26.77268041158947 97.64408797209482 9.999999999999908
  endloop
endfacet
facet normal 1.252928286476839e-32 -2.668461211484341e-32 1.0
  outer loop
    vertex 42.279551862335104 125.9442748936715 9.99999999999991
    vertex 27.410779363306997 100.41866772385157 9.999999999999906
    vertex 29.350679141500954 102.50247479784007 9.999999999999904
  endloop
endfacet
facet normal 1.252928286476839e-32 -2.668461211484341e-32 1.0
  outer loop
    vertex 42.279551862335104 125.9442748936715 9.99999999999991
    vertex 29.350679141500954 102.50247479784007 9.999999999999904
    vertex 32.072585167206974 103.33715477140284 9.999999999999906
  endloop
endfacet
facet normal 1.252928286476839e-32 -2.668461211484341e-32 1.0
  outer loop
    vertex 42.279551862335104 125.9442748936715 9.99999999999991
    vertex 32.072585167206974 103.33715477140284 9.999999999999906
    vertex 34.8471649189637 102.6990558196853 9.999999999999908
  endloop
endfacet
facet normal 1.252928286476839e-32 -2.668461211484341e-32 1.0
  outer loop
    vertex 42.279551862335104 125.9442748936715 9.99999999999991
    vertex 34.8471649189637 102.6990558196853 9.999999999999908
    vertex 36.930971992952195 100.75915604149134 9.99999999999991
  endloop
endfacet
facet normal 1.252928286476839e-32 -2.668461211484341e-32 1.0
  outer loop
    vertex 42.279551862335104 125.9442748936715 9.99999999999991
    vertex 36.930971992952195 100.75915604149134 9.99999999999991
    vertex 37.765651966514966 98.03725001578533 9.999999999999913
  endloop
endfacet
facet normal 1.252928286476839e-32 -2.668461211484341e-32 1.0
  outer loop
    vertex 92.26916618905221 178.66970668048768 9.99999999999991
    vertex 42.279551862335104 125.9442748936715 9.99999999999991
    vertex 87.24661290483209 158.18569375394054 9.999999999999911
  endloop
endfacet
facet normal 1.252928286476839e-32 -2.668461211484341e-32 1.0
  outer loop
    vertex 87.24661290483209 158.18569375394054 9.999999999999911
    vertex 42.279551862335104 125.9442748936715 9.99999999999991
    vertex 86.7987980229221 155.374123925076 9.999999999999913
  endloop
endfacet
facet normal 1.252928286476839e-32 -2.668461211484341e-32 1.0
  outer loop
    vertex 92.26916618905221 178.66970668048768 9.99999999999991
    vertex 87.24661290483209 158.18569375394054 9.999999999999911
    vertex 89.04021688319115 160.39667720929612 9.99999999999991
  endloop
endfacet
facet normal 1.252928286476839e-32 -2.668461211484341e-32 1.0
  outer loop
    vertex 92.26916618905221 178.66970668048768 9.99999999999991
    vertex 89.04021688319115 160.39667720929612 9.99999999999991
    vertex 91.6990152204567 161.41464305980162 9.999999999999908
  endloop
endfacet
facet normal 1.252928286476839e-32 -2.668461211484341e-32 1.0
  outer loop
    vertex 92.26916618905221 178.66970668048768 9.99999999999991
    vertex 91.6990152204567 161.41464305980162 9.999999999999908
    vertex 94.51058504932125 160.9668281778916 9.999999999999908
  endloop
endfacet
facet normal 1.252928286476839e-32 -2.668461211484341e-32 1.0
  outer loop
    vertex 92.26916618905221 178.66970668048768 9.99999999999991
    vertex 94.51058504932125 160.9668281778916 9.999999999999908
    vertex 162.26916618905219 138.25518783721384 9.99999999999991
  endloop
endfacet
facet normal 1.252928286476839e-32 -2.668461211484341e-32 1.0
  outer loop
    vertex 162.26916618905219 138.25518783721384 9.99999999999991
    vertex 94.51058504932125 160.9668281778916 9.999999999999908
    vertex 96.72156850467681 159.17322419953257 9.999999999999908
  endloop
endfacet
facet normal 1.252928286476839e-32 -2.668461211484341e-32 1.0
  outer loop
    vertex 162.26916618905219 138.25518783721384 9.99999999999991
    vertex 96.72156850467681 159.17322419953257 9.999999999999908
    vertex 97.73953435518231 156.514425862267 9.999999999999908
  endloop
endfacet
facet normal 1.252928286476839e-32 -2.668461211484341e-32 1.0
  outer loop
    vertex 162.26916618905219 138.25518783721384 9.99999999999991
    vertex 97.73953435518231 156.514425862267 9.999999999999908
    vertex 134.2795518623349 125.94427489367146 9.99999999999991
  endloop
endfacet
facet normal 1.252928286476839e-32 -2.668461211484341e-32 1.0
  outer loop
    vertex 162.26916618905219 138.25518783721384 9.99999999999991
    vertex 134.2795518623349 125.94427489367146 9.99999999999991
    vertex 145.2030061514113 130.50331717123348 9.999999999999915
  endloop
endfacet
facet normal 1.252928286476839e-32 -2.668461211484341e-32 1.0
  outer loop
    vertex 145.2030061514113 130.50331717123348 9.999999999999915
    vertex 134.2795518623349 125.94427489367146 9.99999999999991
    vertex 143.33566398199 128.35424846750564 9.999999999999915
  endloop
endfacet
facet normal 1.252928286476839e-32 -2.668461211484341e-32 1.0
  outer loop
    vertex 143.33566398199 128.35424846750564 9.999999999999915
    vertex 134.2795518623349 125.94427489367146 9.99999999999991
    vertex 134.27955186233498 108.94427489367148 9.99999999999991
  endloop
endfacet
facet normal 1.252928286476839e-32 -2.668461211484341e-32 1.0
  outer loop
    vertex 143.33566398199 128.35424846750564 9.999999999999915
    vertex 134.27955186233498 108.94427489367148 9.99999999999991
    vertex 142.79303257757712 125.55942929088859 9.999999999999913
  endloop
endfacet
facet normal 1.252928286476839e-32 -2.668461211484341e-32 1.0
  outer loop
    vertex 162.26916618905219 138.25518783721384 9.99999999999991
    vertex 145.2030061514113 130.50331717123348 9.999999999999915
    vertex 147.894706259552 131.4307941784292 9.999999999999915
  endloop
endfacet
facet normal 1.252928286476839e-32 -2.668461211484341e-32 1.0
  outer loop
    vertex 162.26916618905219 138.25518783721384 9.99999999999991
    vertex 147.894706259552 131.4307941784292 9.999999999999915
    vertex 150.68952543616905 130.88816277401634 9.999999999999913
  endloop
endfacet
facet normal 1.252928286476839e-32 -2.668461211484341e-32 1.0
  outer loop
    vertex 162.26916618905219 138.25518783721384 9.99999999999991
    vertex 150.68952543616905 130.88816277401634 9.999999999999913
    vertex 152.83859413989688 129.02082060459506 9.99999999999991
  endloop
endfacet
facet normal 1.252928286476839e-32 -2.668461211484341e-32 1.0
  outer loop
    vertex 162.26916618905219 138.25518783721384 9.99999999999991
    vertex 152.83859413989688 129.02082060459506 9.99999999999991
    vertex 153.76607114709265 126.32912049645434 9.999999999999908
  endloop
endfacet
facet normal 1.252928286476839e-32 -2.668461211484341e-32 1.0
  outer loop
    vertex 162.26916618905219 138.25518783721384 9.99999999999991
    vertex 153.76607114709265 126.32912049645434 9.999999999999908
    vertex 162.26916618905219 108.94427489367148 9.99999999999991
  endloop
endfacet
facet normal 1.252928286476839e-32 -2.668461211484341e-32 1.0
  outer loop
    vertex 22.269166189052207 57.42615015066626 9.99999999999991
    vertex 26.77268041158947 97.64408797209482 9.999999999999908
    vertex 22.269166189052232 138.25518783721392 9.99999999999991
  endloop
endfacet
facet normal 1.252928286476839e-32 -2.668461211484341e-32 1.0
  outer loop
    vertex 26.77268041158947 97.64408797209482 9.999999999999908
    vertex 22.269166189052207 57.42615015066626 9.99999999999991
    vertex 27.60736038515224 94.92218194638882 9.99999999999991
  endloop
endfacet
facet normal 1.252928286476839e-32 -2.668461211484341e-32 1.0
  outer loop
    vertex 27.60736038515224 94.92218194638882 9.99999999999991
    vertex 22.269166189052207 57.42615015066626 9.99999999999991
    vertex 42.27955186233515 68.94427489367145 9.99999999999991
  endloop
endfacet
facet normal 1.252928286476839e-32 -2.668461211484341e-32 1.0
  outer loop
    vertex 42.27955186233515 68.94427489367145 9.99999999999991
    vertex 22.269166189052207 57.42615015066626 9.99999999999991
    vertex 92.26916618905219 17.011631307392438 9.99999999999991
  endloop
endfacet
facet normal 1.252928286476839e-32 -2.668461211484341e-32 1.0
  outer loop
    vertex 27.60736038515224 94.92218194638882 9.99999999999991
    vertex 42.27955186233515 68.94427489367145 9.99999999999991
    vertex 29.691167459140736 92.98228216819486 9.999999999999913
  endloop
endfacet
facet normal 1.252928286476839e-32 -2.668461211484341e-32 1.0
  outer loop
    vertex 29.691167459140736 92.98228216819486 9.999999999999913
    vertex 42.27955186233515 68.94427489367145 9.99999999999991
    vertex 32.46574721089747 92.34418321647732 9.999999999999915
  endloop
endfacet
facet normal 1.252928286476839e-32 -2.668461211484341e-32 1.0
  outer loop
    vertex 32.46574721089747 92.34418321647732 9.999999999999915
    vertex 42.27955186233515 68.94427489367145 9.99999999999991
    vertex 35.18765323660348 93.1788631900401 9.999999999999915
  endloop
endfacet
facet normal 1.252928286476839e-32 -2.668461211484341e-32 1.0
  outer loop
    vertex 35.18765323660348 93.1788631900401 9.999999999999915
    vertex 42.27955186233515 68.94427489367145 9.99999999999991
    vertex 37.12755301479744 95.26267026402859 9.999999999999915
  endloop
endfacet
facet normal 1.252928286476839e-32 -2.668461211484341e-32 1.0
  outer loop
    vertex 37.12755301479744 95.26267026402859 9.999999999999915
    vertex 42.27955186233515 68.94427489367145 9.99999999999991
    vertex 37.765651966514966 98.03725001578533 9.999999999999913
  endloop
endfacet
facet normal 1.252928286476839e-32 -2.668461211484341e-32 1.0
  outer loop
    vertex 37.765651966514966 98.03725001578533 9.999999999999913
    vertex 42.27955186233515 68.94427489367145 9.99999999999991
    vertex 42.279551862335104 125.9442748936715 9.99999999999991
  endloop
endfacet
facet normal 1.252928286476839e-32 -2.668461211484341e-32 1.0
  outer loop
    vertex 42.27955186233515 68.94427489367145 9.99999999999991
    vertex 92.26916618905219 17.011631307392438 9.99999999999991
    vertex 86.7714422223841 38.78606242158629 9.999999999999906
  endloop
endfacet
facet normal 1.252928286476839e-32 -2.668461211484341e-32 1.0
  outer loop
    vertex 86.7714422223841 38.78606242158629 9.999999999999906
    vertex 92.26916618905219 17.011631307392438 9.99999999999991
    vertex 87.58710380696563 36.05839689031612 9.999999999999904
  endloop
endfacet
facet normal 1.252928286476839e-32 -2.668461211484341e-32 1.0
  outer loop
    vertex 87.58710380696563 36.05839689031612 9.999999999999904
    vertex 92.26916618905219 17.011631307392438 9.99999999999991
    vertex 89.65732022573941 34.10400003949974 9.999999999999906
  endloop
endfacet
facet normal 1.252928286476839e-32 -2.668461211484341e-32 1.0
  outer loop
    vertex 89.65732022573941 34.10400003949974 9.999999999999906
    vertex 92.26916618905219 17.011631307392438 9.99999999999991
    vertex 92.42737866113733 33.44655092700334 9.999999999999908
  endloop
endfacet
facet normal 1.252928286476839e-32 -2.668461211484341e-32 1.0
  outer loop
    vertex 92.42737866113733 33.44655092700334 9.999999999999908
    vertex 92.26916618905219 17.011631307392438 9.99999999999991
    vertex 95.15504419240749 34.26221251158488 9.99999999999991
  endloop
endfacet
facet normal 1.252928286476839e-32 -2.668461211484341e-32 1.0
  outer loop
    vertex 95.15504419240749 34.26221251158488 9.99999999999991
    vertex 92.26916618905219 17.011631307392438 9.99999999999991
    vertex 162.26916618905219 57.42615015066624 9.99999999999991
  endloop
endfacet
facet normal 1.252928286476839e-32 -2.668461211484341e-32 1.0
  outer loop
    vertex 95.15504419240749 34.26221251158488 9.99999999999991
    vertex 162.26916618905219 57.42615015066624 9.99999999999991
    vertex 97.10944104322387 36.332428930358645 9.999999999999913
  endloop
endfacet
facet normal 1.252928286476839e-32 -2.668461211484341e-32 1.0
  outer loop
    vertex 97.10944104322387 36.332428930358645 9.999999999999913
    vertex 162.26916618905219 57.42615015066624 9.99999999999991
    vertex 97.76689015572026 39.102487365756566 9.999999999999915
  endloop
endfacet
facet normal 1.252928286476839e-32 -2.668461211484341e-32 1.0
  outer loop
    vertex 97.76689015572026 39.102487365756566 9.999999999999915
    vertex 162.26916618905219 57.42615015066624 9.99999999999991
    vertex 146.14362062982133 63.875961784759056 9.999999999999906
  endloop
endfacet
facet normal 1.252928286476839e-32 -2.668461211484341e-32 1.0
  outer loop
    vertex 97.76689015572026 39.102487365756566 9.999999999999915
    vertex 146.14362062982133 63.875961784759056 9.999999999999906
    vertex 134.279551862335 68.9442748936714 9.99999999999991
  endloop
endfacet
facet normal 1.252928286476839e-32 -2.668461211484341e-32 1.0
  outer loop
    vertex 134.279551862335 68.9442748936714 9.99999999999991
    vertex 146.14362062982133 63.875961784759056 9.999999999999906
    vertex 143.89562459978535 65.6229526032764 9.999999999999906
  endloop
endfacet
facet normal 1.252928286476839e-32 -2.668461211484341e-32 1.0
  outer loop
    vertex 134.279551862335 68.9442748936714 9.99999999999991
    vertex 143.89562459978535 65.6229526032764 9.999999999999906
    vertex 142.82229833942628 68.25988904730859 9.999999999999906
  endloop
endfacet
facet normal 1.252928286476839e-32 -2.668461211484341e-32 1.0
  outer loop
    vertex 146.14362062982133 63.875961784759056 9.999999999999906
    vertex 162.26916618905219 57.42615015066624 9.99999999999991
    vertex 148.96393770869773 63.48702137076285 9.999999999999908
  endloop
endfacet
facet normal 1.252928286476839e-32 -2.668461211484341e-32 1.0
  outer loop
    vertex 148.96393770869773 63.48702137076285 9.999999999999908
    vertex 162.26916618905219 57.42615015066624 9.99999999999991
    vertex 151.60087415272992 64.5603476311219 9.99999999999991
  endloop
endfacet
facet normal 1.252928286476839e-32 -2.668461211484341e-32 1.0
  outer loop
    vertex 151.60087415272992 64.5603476311219 9.99999999999991
    vertex 162.26916618905219 57.42615015066624 9.99999999999991
    vertex 153.34786497124725 66.80834366115788 9.999999999999913
  endloop
endfacet
facet normal 1.252928286476839e-32 -2.668461211484341e-32 1.0
  outer loop
    vertex 153.34786497124725 66.80834366115788 9.999999999999913
    vertex 162.26916618905219 57.42615015066624 9.99999999999991
    vertex 153.73680538524349 69.62866074003429 9.999999999999915
  endloop
endfacet
facet normal 1.252928286476839e-32 -2.668461211484341e-32 1.0
  outer loop
    vertex 134.27955186233498 79.9442748936714 9.99999999999991
    vertex 147.59516601597204 74.40152841658002 9.999999999999913
    vertex 162.26916618905219 79.9442748936714 9.99999999999991
  endloop
endfacet
facet normal 1.252928286476839e-32 -2.668461211484341e-32 1.0
  outer loop
    vertex 147.59516601597204 74.40152841658002 9.999999999999913
    vertex 134.27955186233498 79.9442748936714 9.99999999999991
    vertex 144.95822957193982 73.32820215622097 9.99999999999991
  endloop
endfacet
facet normal 1.252928286476839e-32 -2.668461211484341e-32 1.0
  outer loop
    vertex 144.95822957193982 73.32820215622097 9.99999999999991
    vertex 134.27955186233498 79.9442748936714 9.99999999999991
    vertex 134.279551862335 68.9442748936714 9.99999999999991
  endloop
endfacet
facet normal 1.252928286476839e-32 -2.668461211484341e-32 1.0
  outer loop
    vertex 144.95822957193982 73.32820215622097 9.99999999999991
    vertex 134.279551862335 68.9442748936714 9.99999999999991
    vertex 143.2112387534225 71.08020612618499 9.999999999999908
  endloop
endfacet
facet normal 1.252928286476839e-32 -2.668461211484341e-32 1.0
  outer loop
    vertex 143.2112387534225 71.08020612618499 9.999999999999908
    vertex 134.279551862335 68.9442748936714 9.99999999999991
    vertex 142.82229833942628 68.25988904730859 9.999999999999906
  endloop
endfacet
facet normal 1.252928286476839e-32 -2.668461211484341e-32 1.0
  outer loop
    vertex 162.26916618905219 79.9442748936714 9.99999999999991
    vertex 147.59516601597204 74.40152841658002 9.999999999999913
    vertex 150.41548309484844 74.01258800258381 9.999999999999915
  endloop
endfacet
facet normal 1.252928286476839e-32 -2.668461211484341e-32 1.0
  outer loop
    vertex 162.26916618905219 79.9442748936714 9.99999999999991
    vertex 150.41548309484844 74.01258800258381 9.999999999999915
    vertex 152.66347912488442 72.26559718406646 9.999999999999915
  endloop
endfacet
facet normal 1.252928286476839e-32 -2.668461211484341e-32 1.0
  outer loop
    vertex 162.26916618905219 79.9442748936714 9.99999999999991
    vertex 152.66347912488442 72.26559718406646 9.999999999999915
    vertex 153.73680538524349 69.62866074003429 9.999999999999915
  endloop
endfacet
facet normal 1.252928286476839e-32 -2.668461211484341e-32 1.0
  outer loop
    vertex 162.26916618905219 79.9442748936714 9.99999999999991
    vertex 153.73680538524349 69.62866074003429 9.999999999999915
    vertex 162.26916618905219 57.42615015066624 9.99999999999991
  endloop
endfacet
facet normal 1.252928286476839e-32 -2.668461211484341e-32 1.0
  outer loop
    vertex 42.27955186233515 68.94427489367145 9.99999999999991
    vertex 89.38328818569687 43.62633727575797 9.99999999999991
    vertex 134.279551862335 68.9442748936714 9.99999999999991
  endloop
endfacet
facet normal 1.252928286476839e-32 -2.668461211484341e-32 1.0
  outer loop
    vertex 89.38328818569687 43.62633727575797 9.99999999999991
    vertex 42.27955186233515 68.94427489367145 9.99999999999991
    vertex 87.42889133488049 41.5561208569842 9.999999999999908
  endloop
endfacet
facet normal 1.252928286476839e-32 -2.668461211484341e-32 1.0
  outer loop
    vertex 87.42889133488049 41.5561208569842 9.999999999999908
    vertex 42.27955186233515 68.94427489367145 9.99999999999991
    vertex 86.7714422223841 38.78606242158629 9.999999999999906
  endloop
endfacet
facet normal 1.252928286476839e-32 -2.668461211484341e-32 1.0
  outer loop
    vertex 134.279551862335 68.9442748936714 9.99999999999991
    vertex 89.38328818569687 43.62633727575797 9.99999999999991
    vertex 92.11095371696705 44.44199886033951 9.999999999999913
  endloop
endfacet
facet normal 1.252928286476839e-32 -2.668461211484341e-32 1.0
  outer loop
    vertex 134.279551862335 68.9442748936714 9.99999999999991
    vertex 92.11095371696705 44.44199886033951 9.999999999999913
    vertex 94.88101215236496 43.78454974784311 9.999999999999915
  endloop
endfacet
facet normal 1.252928286476839e-32 -2.668461211484341e-32 1.0
  outer loop
    vertex 134.279551862335 68.9442748936714 9.99999999999991
    vertex 94.88101215236496 43.78454974784311 9.999999999999915
    vertex 96.95122857113873 41.830152897026736 9.999999999999915
  endloop
endfacet
facet normal 1.252928286476839e-32 -2.668461211484341e-32 1.0
  outer loop
    vertex 134.279551862335 68.9442748936714 9.99999999999991
    vertex 96.95122857113873 41.830152897026736 9.999999999999915
    vertex 97.76689015572026 39.102487365756566 9.999999999999915
  endloop
endfacet
facet normal 0.9729712665748136 -0.23092620990221802 6.765249392775921e-16
  outer loop
    vertex 87.42889133488049 41.5561208569842 4.999999999999907
    vertex 86.7714422223841 38.78606242158629 9.999999999999906
    vertex 86.7714422223841 38.78606242158629 4.999999999999906
  endloop
endfacet
facet normal 0.9729712665748136 -0.23092620990221802 6.765249392775921e-16
  outer loop
    vertex 86.7714422223841 38.78606242158629 9.999999999999906
    vertex 87.42889133488049 41.5561208569842 4.999999999999907
    vertex 87.42889133488049 41.5561208569842 9.999999999999908
  endloop
endfacet
facet normal 0.9580809389572189 0.2864976691124275 9.24150253346915e-16
  outer loop
    vertex 86.7714422223841 38.78606242158629 4.999999999999906
    vertex 87.58710380696563 36.05839689031612 9.999999999999904
    vertex 87.58710380696563 36.05839689031612 4.999999999999904
  endloop
endfacet
facet normal 0.9580809389572189 0.2864976691124275 9.24150253346915e-16
  outer loop
    vertex 87.58710380696563 36.05839689031612 9.999999999999904
    vertex 86.7714422223841 38.78606242158629 4.999999999999906
    vertex 86.7714422223841 38.78606242158629 9.999999999999906
  endloop
endfacet
facet normal -8.144666671700697e-16 -5.020119869066642e-16 1.0
  outer loop
    vertex 87.58710380696563 36.05839689031612 4.999999999999904
    vertex 87.42889133488049 41.5561208569842 4.999999999999907
    vertex 86.7714422223841 38.78606242158629 4.999999999999906
  endloop
endfacet
facet normal -8.144666671700697e-16 -5.020119869066642e-16 1.0
  outer loop
    vertex 87.42889133488049 41.5561208569842 4.999999999999907
    vertex 87.58710380696563 36.05839689031612 4.999999999999904
    vertex 89.38328818569687 43.62633727575797 4.999999999999909
  endloop
endfacet
facet normal -8.144666671700697e-16 -5.020119869066642e-16 1.0
  outer loop
    vertex 89.38328818569687 43.62633727575797 4.999999999999909
    vertex 87.58710380696563 36.05839689031612 4.999999999999904
    vertex 89.65732022573941 34.10400003949974 4.999999999999906
  endloop
endfacet
facet normal -8.144666671700697e-16 -5.020119869066642e-16 1.0
  outer loop
    vertex 89.38328818569687 43.62633727575797 4.999999999999909
    vertex 89.65732022573941 34.10400003949974 4.999999999999906
    vertex 92.11095371696705 44.44199886033951 4.999999999999913
  endloop
endfacet
facet normal -8.144666671700697e-16 -5.020119869066642e-16 1.0
  outer loop
    vertex 92.11095371696705 44.44199886033951 4.999999999999913
    vertex 89.65732022573941 34.10400003949974 4.999999999999906
    vertex 92.42737866113733 33.44655092700334 4.999999999999907
  endloop
endfacet
facet normal -8.144666671700697e-16 -5.020119869066642e-16 1.0
  outer loop
    vertex 92.11095371696705 44.44199886033951 4.999999999999913
    vertex 92.42737866113733 33.44655092700334 4.999999999999907
    vertex 94.88101215236496 43.78454974784311 4.999999999999914
  endloop
endfacet
facet normal -8.144666671700697e-16 -5.020119869066642e-16 1.0
  outer loop
    vertex 94.88101215236496 43.78454974784311 4.999999999999914
    vertex 92.42737866113733 33.44655092700334 4.999999999999907
    vertex 95.15504419240749 34.26221251158488 4.999999999999909
  endloop
endfacet
facet normal -8.144666671700697e-16 -5.020119869066642e-16 1.0
  outer loop
    vertex 94.88101215236496 43.78454974784311 4.999999999999914
    vertex 95.15504419240749 34.26221251158488 4.999999999999909
    vertex 96.95122857113873 41.830152897026736 4.999999999999916
  endloop
endfacet
facet normal -8.144666671700697e-16 -5.020119869066642e-16 1.0
  outer loop
    vertex 96.95122857113873 41.830152897026736 4.999999999999916
    vertex 95.15504419240749 34.26221251158488 4.999999999999909
    vertex 97.10944104322387 36.332428930358645 4.999999999999913
  endloop
endfacet
facet normal -8.144666671700697e-16 -5.020119869066642e-16 1.0
  outer loop
    vertex 96.95122857113873 41.830152897026736 4.999999999999916
    vertex 97.10944104322387 36.332428930358645 4.999999999999913
    vertex 97.76689015572026 39.102487365756566 4.999999999999914
  endloop
endfacet
facet normal 0.6864735974623861 0.7271547290549997 9.24150253346915e-16
  outer loop
    vertex 87.58710380696563 36.05839689031612 9.999999999999904
    vertex 89.65732022573941 34.10400003949974 4.999999999999906
    vertex 87.58710380696563 36.05839689031612 4.999999999999904
  endloop
endfacet
facet normal 0.6864735974623861 0.7271547290549997 9.24150253346915e-16
  outer loop
    vertex 89.65732022573941 34.10400003949974 4.999999999999906
    vertex 87.58710380696563 36.05839689031612 9.999999999999904
    vertex 89.65732022573941 34.10400003949974 9.999999999999906
  endloop
endfacet
facet normal -0.5000000000000002 -0.8660254037844386 -0.0
  outer loop
    vertex 92.26916618905219 17.011631307392438 9.99999999999991
    vertex 22.269166189052207 57.42615015066626 -9.023892744153272e-14
    vertex 92.26916618905219 17.011631307392438 -9.023892744153272e-14
  endloop
endfacet
facet normal -0.5000000000000002 -0.8660254037844386 -0.0
  outer loop
    vertex 22.269166189052207 57.42615015066626 -9.023892744153272e-14
    vertex 92.26916618905219 17.011631307392438 9.99999999999991
    vertex 22.269166189052207 57.42615015066626 9.99999999999991
  endloop
endfacet
facet normal -0.2864976691124275 0.9580809389572189 2.4762531406932355e-16
  outer loop
    vertex 92.42737866113733 33.44655092700334 9.999999999999908
    vertex 95.15504419240749 34.26221251158488 4.999999999999909
    vertex 92.42737866113733 33.44655092700334 4.999999999999907
  endloop
endfacet
facet normal -0.2864976691124275 0.9580809389572189 2.4762531406932355e-16
  outer loop
    vertex 95.15504419240749 34.26221251158488 4.999999999999909
    vertex 92.42737866113733 33.44655092700334 9.999999999999908
    vertex 95.15504419240749 34.26221251158488 9.99999999999991
  endloop
endfacet
facet normal 0.0 0.0 -1.0
  outer loop
    vertex 22.269166189052232 138.25518783721392 -9.023892744153272e-14
    vertex 92.26916618905219 17.011631307392438 -9.023892744153272e-14
    vertex 22.269166189052207 57.42615015066626 -9.023892744153272e-14
  endloop
endfacet
facet normal 0.0 0.0 -1.0
  outer loop
    vertex 92.26916618905219 17.011631307392438 -9.023892744153272e-14
    vertex 22.269166189052232 138.25518783721392 -9.023892744153272e-14
    vertex 92.26916618905221 178.66970668048768 -9.023892744153272e-14
  endloop
endfacet
facet normal 0.0 0.0 -1.0
  outer loop
    vertex 92.26916618905219 17.011631307392438 -9.023892744153272e-14
    vertex 92.26916618905221 178.66970668048768 -9.023892744153272e-14
    vertex 162.26916618905219 57.42615015066624 -9.023892744153272e-14
  endloop
endfacet
facet normal 0.0 0.0 -1.0
  outer loop
    vertex 162.26916618905219 57.42615015066624 -9.023892744153272e-14
    vertex 92.26916618905221 178.66970668048768 -9.023892744153272e-14
    vertex 162.26916618905219 138.25518783721384 -9.023892744153272e-14
  endloop
endfacet
facet normal -0.7271547290549997 0.6864735974623861 -2.476253140693226e-16
  outer loop
    vertex 97.10944104322387 36.332428930358645 9.999999999999913
    vertex 95.15504419240749 34.26221251158488 4.999999999999909
    vertex 95.15504419240749 34.26221251158488 9.99999999999991
  endloop
endfacet
facet normal -0.7271547290549997 0.6864735974623861 -2.476253140693226e-16
  outer loop
    vertex 95.15504419240749 34.26221251158488 4.999999999999909
    vertex 97.10944104322387 36.332428930358645 9.999999999999913
    vertex 97.10944104322387 36.332428930358645 4.999999999999913
  endloop
endfacet
facet normal -0.0 -0.0 1.0
  outer loop
    vertex 42.27955186233515 68.94427489367145 4.999999999999909
    vertex 134.2795518623349 125.94427489367146 4.999999999999909
    vertex 42.279551862335104 125.9442748936715 4.999999999999909
  endloop
endfacet
facet normal -0.0 -0.0 1.0
  outer loop
    vertex 134.2795518623349 125.94427489367146 4.999999999999909
    vertex 42.27955186233515 68.94427489367145 4.999999999999909
    vertex 134.27955186233498 79.9442748936714 4.999999999999909
  endloop
endfacet
facet normal -0.0 -0.0 1.0
  outer loop
    vertex 134.27955186233498 79.9442748936714 4.999999999999909
    vertex 42.27955186233515 68.94427489367145 4.999999999999909
    vertex 134.279551862335 68.9442748936714 4.999999999999909
  endloop
endfacet
facet normal -0.0 -0.0 1.0
  outer loop
    vertex 134.27955186233498 79.9442748936714 4.999999999999909
    vertex 134.27955186233498 108.94427489367148 4.999999999999909
    vertex 134.2795518623349 125.94427489367146 4.999999999999909
  endloop
endfacet
facet normal -0.0 -0.0 1.0
  outer loop
    vertex 134.27955186233498 108.94427489367148 4.999999999999909
    vertex 134.27955186233498 79.9442748936714 4.999999999999909
    vertex 162.26916618905219 79.9442748936714 4.999999999999909
  endloop
endfacet
facet normal -0.0 -0.0 1.0
  outer loop
    vertex 134.27955186233498 108.94427489367148 4.999999999999909
    vertex 162.26916618905219 79.9442748936714 4.999999999999909
    vertex 162.26916618905219 108.94427489367148 4.999999999999909
  endloop
endfacet
facet normal -0.0 -0.0 1.0
  outer loop
    vertex 162.26916618905219 108.94427489367148 4.999999999999909
    vertex 162.26916618905219 79.9442748936714 4.999999999999909
    vertex 162.26916618905219 84.9442748936714 4.999999999999909
  endloop
endfacet
facet normal -0.23092620990221754 -0.9729712665748136 -6.765249392775908e-16
  outer loop
    vertex 94.88101215236496 43.78454974784311 4.999999999999914
    vertex 92.11095371696705 44.44199886033951 9.999999999999913
    vertex 92.11095371696705 44.44199886033951 4.999999999999913
  endloop
endfacet
facet normal -0.23092620990221754 -0.9729712665748136 -6.765249392775908e-16
  outer loop
    vertex 92.11095371696705 44.44199886033951 9.999999999999913
    vertex 94.88101215236496 43.78454974784311 4.999999999999914
    vertex 94.88101215236496 43.78454974784311 9.999999999999915
  endloop
endfacet
facet normal -0.9729712665748136 0.23092620990221754 -6.765249392775923e-16
  outer loop
    vertex 97.76689015572026 39.102487365756566 9.999999999999915
    vertex 97.10944104322387 36.332428930358645 4.999999999999913
    vertex 97.10944104322387 36.332428930358645 9.999999999999913
  endloop
endfacet
facet normal -0.9729712665748136 0.23092620990221754 -6.765249392775923e-16
  outer loop
    vertex 97.10944104322387 36.332428930358645 4.999999999999913
    vertex 97.76689015572026 39.102487365756566 9.999999999999915
    vertex 97.76689015572026 39.102487365756566 4.999999999999914
  endloop
endfacet
facet normal 0.7548512594182851 -0.6558960101682498 -8.30549981502077e-16
  outer loop
    vertex 145.2030061514113 130.50331717123348 4.499999999999914
    vertex 143.33566398199 128.35424846750564 9.999999999999915
    vertex 143.33566398199 128.35424846750564 4.499999999999914
  endloop
endfacet
facet normal 0.7548512594182851 -0.6558960101682498 -8.30549981502077e-16
  outer loop
    vertex 143.33566398199 128.35424846750564 9.999999999999915
    vertex 145.2030061514113 130.50331717123348 4.499999999999914
    vertex 145.2030061514113 130.50331717123348 9.999999999999915
  endloop
endfacet
facet normal 0.23092620990221943 0.9729712665748133 6.765249392775921e-16
  outer loop
    vertex 89.65732022573941 34.10400003949974 9.999999999999906
    vertex 92.42737866113733 33.44655092700334 4.999999999999907
    vertex 89.65732022573941 34.10400003949974 4.999999999999906
  endloop
endfacet
facet normal 0.23092620990221943 0.9729712665748133 6.765249392775921e-16
  outer loop
    vertex 92.42737866113733 33.44655092700334 4.999999999999907
    vertex 89.65732022573941 34.10400003949974 9.999999999999906
    vertex 92.42737866113733 33.44655092700334 9.999999999999908
  endloop
endfacet
facet normal 0.6558960101682498 0.7548512594182851 1.8423742741431004e-16
  outer loop
    vertex 143.72050958477288 122.86772918274788 4.49999999999991
    vertex 145.86957828850072 121.00038701332659 9.999999999999908
    vertex 145.86957828850072 121.00038701332659 4.4999999999999085
  endloop
endfacet
facet normal 0.6558960101682498 0.7548512594182851 1.8423742741431004e-16
  outer loop
    vertex 145.86957828850072 121.00038701332659 9.999999999999908
    vertex 143.72050958477288 122.86772918274788 4.49999999999991
    vertex 143.72050958477288 122.86772918274788 9.99999999999991
  endloop
endfacet
facet normal -0.32577236165078904 0.9454482367557029 8.113960968006497e-16
  outer loop
    vertex 148.66439746511776 120.45775560891371 9.999999999999906
    vertex 151.35609757325847 121.38523261610946 4.499999999999906
    vertex 148.66439746511776 120.45775560891371 4.499999999999906
  endloop
endfacet
facet normal -0.32577236165078904 0.9454482367557029 8.113960968006497e-16
  outer loop
    vertex 151.35609757325847 121.38523261610946 4.499999999999906
    vertex 148.66439746511776 120.45775560891371 9.999999999999906
    vertex 151.35609757325847 121.38523261610946 9.999999999999906
  endloop
endfacet
facet normal 5.061011059819677e-16 -6.838262732282027e-16 1.0
  outer loop
    vertex 143.72050958477288 122.86772918274788 4.49999999999991
    vertex 143.33566398199 128.35424846750564 4.499999999999914
    vertex 142.79303257757712 125.55942929088859 4.499999999999913
  endloop
endfacet
facet normal 5.061011059819677e-16 -6.838262732282027e-16 1.0
  outer loop
    vertex 143.33566398199 128.35424846750564 4.499999999999914
    vertex 143.72050958477288 122.86772918274788 4.49999999999991
    vertex 145.2030061514113 130.50331717123348 4.499999999999914
  endloop
endfacet
facet normal 5.061011059819677e-16 -6.838262732282027e-16 1.0
  outer loop
    vertex 145.2030061514113 130.50331717123348 4.499999999999914
    vertex 143.72050958477288 122.86772918274788 4.49999999999991
    vertex 145.86957828850072 121.00038701332659 4.4999999999999085
  endloop
endfacet
facet normal 5.061011059819677e-16 -6.838262732282027e-16 1.0
  outer loop
    vertex 145.2030061514113 130.50331717123348 4.499999999999914
    vertex 145.86957828850072 121.00038701332659 4.4999999999999085
    vertex 147.894706259552 131.4307941784292 4.499999999999914
  endloop
endfacet
facet normal 5.061011059819677e-16 -6.838262732282027e-16 1.0
  outer loop
    vertex 147.894706259552 131.4307941784292 4.499999999999914
    vertex 145.86957828850072 121.00038701332659 4.4999999999999085
    vertex 148.66439746511776 120.45775560891371 4.499999999999906
  endloop
endfacet
facet normal 5.061011059819677e-16 -6.838262732282027e-16 1.0
  outer loop
    vertex 147.894706259552 131.4307941784292 4.499999999999914
    vertex 148.66439746511776 120.45775560891371 4.499999999999906
    vertex 150.68952543616905 130.88816277401634 4.499999999999913
  endloop
endfacet
facet normal 5.061011059819677e-16 -6.838262732282027e-16 1.0
  outer loop
    vertex 150.68952543616905 130.88816277401634 4.499999999999913
    vertex 148.66439746511776 120.45775560891371 4.499999999999906
    vertex 151.35609757325847 121.38523261610946 4.499999999999906
  endloop
endfacet
facet normal 5.061011059819677e-16 -6.838262732282027e-16 1.0
  outer loop
    vertex 150.68952543616905 130.88816277401634 4.499999999999913
    vertex 151.35609757325847 121.38523261610946 4.499999999999906
    vertex 152.83859413989688 129.02082060459506 4.49999999999991
  endloop
endfacet
facet normal 5.061011059819677e-16 -6.838262732282027e-16 1.0
  outer loop
    vertex 152.83859413989688 129.02082060459506 4.49999999999991
    vertex 151.35609757325847 121.38523261610946 4.499999999999906
    vertex 153.22343974267974 123.5343013198373 4.499999999999906
  endloop
endfacet
facet normal 5.061011059819677e-16 -6.838262732282027e-16 1.0
  outer loop
    vertex 152.83859413989688 129.02082060459506 4.49999999999991
    vertex 153.22343974267974 123.5343013198373 4.499999999999906
    vertex 153.76607114709265 126.32912049645434 4.499999999999907
  endloop
endfacet
facet normal -0.7548512594182851 0.6558960101682498 8.30549981502077e-16
  outer loop
    vertex 153.22343974267974 123.5343013198373 9.999999999999906
    vertex 151.35609757325847 121.38523261610946 4.499999999999906
    vertex 151.35609757325847 121.38523261610946 9.999999999999906
  endloop
endfacet
facet normal -0.7548512594182851 0.6558960101682498 8.30549981502077e-16
  outer loop
    vertex 151.35609757325847 121.38523261610946 4.499999999999906
    vertex 153.22343974267974 123.5343013198373 9.999999999999906
    vertex 153.22343974267974 123.5343013198373 4.499999999999906
  endloop
endfacet
facet normal -0.6558960101682498 -0.7548512594182851 -1.8423742741431004e-16
  outer loop
    vertex 152.83859413989688 129.02082060459506 9.99999999999991
    vertex 150.68952543616905 130.88816277401634 4.499999999999913
    vertex 152.83859413989688 129.02082060459506 4.49999999999991
  endloop
endfacet
facet normal -0.6558960101682498 -0.7548512594182851 -1.8423742741431004e-16
  outer loop
    vertex 150.68952543616905 130.88816277401634 4.499999999999913
    vertex 152.83859413989688 129.02082060459506 9.99999999999991
    vertex 150.68952543616905 130.88816277401634 9.999999999999913
  endloop
endfacet
facet normal -0.19059697733742015 -0.9816683718190371 -5.748292832197214e-16
  outer loop
    vertex 150.68952543616905 130.88816277401634 9.999999999999913
    vertex 147.894706259552 131.4307941784292 4.499999999999914
    vertex 150.68952543616905 130.88816277401634 4.499999999999913
  endloop
endfacet
facet normal -0.19059697733742015 -0.9816683718190371 -5.748292832197214e-16
  outer loop
    vertex 147.894706259552 131.4307941784292 4.499999999999914
    vertex 150.68952543616905 130.88816277401634 9.999999999999913
    vertex 147.894706259552 131.4307941784292 9.999999999999915
  endloop
endfacet
facet normal 0.5 -0.8660254037844386 0.0
  outer loop
    vertex 162.26916618905219 57.42615015066624 9.99999999999991
    vertex 92.26916618905219 17.011631307392438 -9.023892744153272e-14
    vertex 162.26916618905219 57.42615015066624 -9.023892744153272e-14
  endloop
endfacet
facet normal 0.5 -0.8660254037844386 0.0
  outer loop
    vertex 92.26916618905219 17.011631307392438 -9.023892744153272e-14
    vertex 162.26916618905219 57.42615015066624 9.99999999999991
    vertex 92.26916618905219 17.011631307392438 9.99999999999991
  endloop
endfacet
facet normal -1.0 -2.8199664825478967e-15 -0.0
  outer loop
    vertex 134.27955186233498 79.9442748936714 9.99999999999991
    vertex 134.279551862335 68.9442748936714 4.999999999999909
    vertex 134.279551862335 68.9442748936714 9.99999999999991
  endloop
endfacet
facet normal -1.0 -2.8199664825478967e-15 -0.0
  outer loop
    vertex 134.279551862335 68.9442748936714 4.999999999999909
    vertex 134.27955186233498 79.9442748936714 9.99999999999991
    vertex 134.27955186233498 79.9442748936714 4.999999999999909
  endloop
endfacet
facet normal 0.0 1.0 0.0
  outer loop
    vertex 134.27955186233498 79.9442748936714 9.99999999999991
    vertex 162.26916618905219 79.9442748936714 4.999999999999909
    vertex 134.27955186233498 79.9442748936714 4.999999999999909
  endloop
endfacet
facet normal 0.0 1.0 0.0
  outer loop
    vertex 162.26916618905219 79.9442748936714 4.999999999999909
    vertex 134.27955186233498 79.9442748936714 9.99999999999991
    vertex 162.26916618905219 79.9442748936714 9.99999999999991
  endloop
endfacet
facet normal -0.9816683718190371 0.19059697733742015 6.271586693863404e-16
  outer loop
    vertex 153.76607114709265 126.32912049645434 9.999999999999908
    vertex 153.22343974267974 123.5343013198373 4.499999999999906
    vertex 153.22343974267974 123.5343013198373 9.999999999999906
  endloop
endfacet
facet normal -0.9816683718190371 0.19059697733742015 6.271586693863404e-16
  outer loop
    vertex 153.22343974267974 123.5343013198373 4.499999999999906
    vertex 153.76607114709265 126.32912049645434 9.999999999999908
    vertex 153.76607114709265 126.32912049645434 4.499999999999907
  endloop
endfacet
facet normal 0.32577236165078904 -0.9454482367557029 -8.113960968006497e-16
  outer loop
    vertex 147.894706259552 131.4307941784292 9.999999999999915
    vertex 145.2030061514113 130.50331717123348 4.499999999999914
    vertex 147.894706259552 131.4307941784292 4.499999999999914
  endloop
endfacet
facet normal 0.32577236165078904 -0.9454482367557029 -8.113960968006497e-16
  outer loop
    vertex 145.2030061514113 130.50331717123348 4.499999999999914
    vertex 147.894706259552 131.4307941784292 9.999999999999915
    vertex 145.2030061514113 130.50331717123348 9.999999999999915
  endloop
endfacet
facet normal 0.19059697733742015 0.9816683718190371 5.748292832197214e-16
  outer loop
    vertex 145.86957828850072 121.00038701332659 4.4999999999999085
    vertex 148.66439746511776 120.45775560891371 9.999999999999906
    vertex 148.66439746511776 120.45775560891371 4.499999999999906
  endloop
endfacet
facet normal 0.19059697733742015 0.9816683718190371 5.748292832197214e-16
  outer loop
    vertex 148.66439746511776 120.45775560891371 9.999999999999906
    vertex 145.86957828850072 121.00038701332659 4.4999999999999085
    vertex 145.86957828850072 121.00038701332659 9.999999999999908
  endloop
endfacet
facet normal -0.9454482367557029 -0.32577236165078904 2.557206982823532e-16
  outer loop
    vertex 152.83859413989688 129.02082060459506 9.99999999999991
    vertex 153.76607114709265 126.32912049645434 4.499999999999907
    vertex 153.76607114709265 126.32912049645434 9.999999999999908
  endloop
endfacet
facet normal -0.9454482367557029 -0.32577236165078904 2.557206982823532e-16
  outer loop
    vertex 153.76607114709265 126.32912049645434 4.499999999999907
    vertex 152.83859413989688 129.02082060459506 9.99999999999991
    vertex 152.83859413989688 129.02082060459506 4.49999999999991
  endloop
endfacet
facet normal -0.6136231090530124 -0.7895990628389289 -8.305499815020766e-16
  outer loop
    vertex 152.66347912488442 72.26559718406646 9.999999999999915
    vertex 150.41548309484844 74.01258800258381 4.999999999999914
    vertex 152.66347912488442 72.26559718406646 4.999999999999914
  endloop
endfacet
facet normal -0.6136231090530124 -0.7895990628389289 -8.305499815020766e-16
  outer loop
    vertex 150.41548309484844 74.01258800258381 4.999999999999914
    vertex 152.66347912488442 72.26559718406646 9.999999999999915
    vertex 150.41548309484844 74.01258800258381 9.999999999999915
  endloop
endfacet
facet normal -6.551183618994218e-16 -5.42749144021031e-16 1.0
  outer loop
    vertex 143.89562459978535 65.6229526032764 4.999999999999906
    vertex 143.2112387534225 71.08020612618499 4.9999999999999085
    vertex 142.82229833942628 68.25988904730859 4.999999999999906
  endloop
endfacet
facet normal -6.551183618994218e-16 -5.42749144021031e-16 1.0
  outer loop
    vertex 143.2112387534225 71.08020612618499 4.9999999999999085
    vertex 143.89562459978535 65.6229526032764 4.999999999999906
    vertex 144.95822957193982 73.32820215622097 4.999999999999909
  endloop
endfacet
facet normal -6.551183618994218e-16 -5.42749144021031e-16 1.0
  outer loop
    vertex 144.95822957193982 73.32820215622097 4.999999999999909
    vertex 143.89562459978535 65.6229526032764 4.999999999999906
    vertex 146.14362062982133 63.875961784759056 4.999999999999906
  endloop
endfacet
facet normal -6.551183618994218e-16 -5.42749144021031e-16 1.0
  outer loop
    vertex 144.95822957193982 73.32820215622097 4.999999999999909
    vertex 146.14362062982133 63.875961784759056 4.999999999999906
    vertex 147.59516601597204 74.40152841658002 4.999999999999913
  endloop
endfacet
facet normal -6.551183618994218e-16 -5.42749144021031e-16 1.0
  outer loop
    vertex 147.59516601597204 74.40152841658002 4.999999999999913
    vertex 146.14362062982133 63.875961784759056 4.999999999999906
    vertex 148.96393770869773 63.48702137076285 4.999999999999907
  endloop
endfacet
facet normal -6.551183618994218e-16 -5.42749144021031e-16 1.0
  outer loop
    vertex 147.59516601597204 74.40152841658002 4.999999999999913
    vertex 148.96393770869773 63.48702137076285 4.999999999999907
    vertex 150.41548309484844 74.01258800258381 4.999999999999914
  endloop
endfacet
facet normal -6.551183618994218e-16 -5.42749144021031e-16 1.0
  outer loop
    vertex 150.41548309484844 74.01258800258381 4.999999999999914
    vertex 148.96393770869773 63.48702137076285 4.999999999999907
    vertex 151.60087415272992 64.5603476311219 4.999999999999909
  endloop
endfacet
facet normal -6.551183618994218e-16 -5.42749144021031e-16 1.0
  outer loop
    vertex 150.41548309484844 74.01258800258381 4.999999999999914
    vertex 151.60087415272992 64.5603476311219 4.999999999999909
    vertex 152.66347912488442 72.26559718406646 4.999999999999914
  endloop
endfacet
facet normal -6.551183618994218e-16 -5.42749144021031e-16 1.0
  outer loop
    vertex 152.66347912488442 72.26559718406646 4.999999999999914
    vertex 151.60087415272992 64.5603476311219 4.999999999999909
    vertex 153.34786497124725 66.80834366115788 4.999999999999913
  endloop
endfacet
facet normal -6.551183618994218e-16 -5.42749144021031e-16 1.0
  outer loop
    vertex 152.66347912488442 72.26559718406646 4.999999999999914
    vertex 153.34786497124725 66.80834366115788 4.999999999999913
    vertex 153.73680538524349 69.62866074003429 4.999999999999914
  endloop
endfacet
facet normal -4.90428953486592e-16 -1.0 -0.0
  outer loop
    vertex 134.2795518623349 125.94427489367146 9.99999999999991
    vertex 42.279551862335104 125.9442748936715 4.999999999999909
    vertex 134.2795518623349 125.94427489367146 4.999999999999909
  endloop
endfacet
facet normal -4.90428953486592e-16 -1.0 -0.0
  outer loop
    vertex 42.279551862335104 125.9442748936715 4.999999999999909
    vertex 134.2795518623349 125.94427489367146 9.99999999999991
    vertex 42.279551862335104 125.9442748936715 9.99999999999991
  endloop
endfacet
facet normal 0.9262127322085622 0.3770012926963916 8.113960968006497e-16
  outer loop
    vertex 142.82229833942628 68.25988904730859 4.999999999999906
    vertex 143.89562459978535 65.6229526032764 9.999999999999906
    vertex 143.89562459978535 65.6229526032764 4.999999999999906
  endloop
endfacet
facet normal 0.9262127322085622 0.3770012926963916 8.113960968006497e-16
  outer loop
    vertex 143.89562459978535 65.6229526032764 9.999999999999906
    vertex 142.82229833942628 68.25988904730859 4.999999999999906
    vertex 142.82229833942628 68.25988904730859 9.999999999999906
  endloop
endfacet
facet normal -0.3770012926963896 0.9262127322085629 2.5572069828235474e-16
  outer loop
    vertex 148.96393770869773 63.48702137076285 9.999999999999908
    vertex 151.60087415272992 64.5603476311219 4.999999999999909
    vertex 148.96393770869773 63.48702137076285 4.999999999999907
  endloop
endfacet
facet normal -0.3770012926963896 0.9262127322085629 2.5572069828235474e-16
  outer loop
    vertex 151.60087415272992 64.5603476311219 4.999999999999909
    vertex 148.96393770869773 63.48702137076285 9.999999999999908
    vertex 151.60087415272992 64.5603476311219 9.99999999999991
  endloop
endfacet
facet normal -0.9262127322085617 -0.37700129269639304 -8.113960968006503e-16
  outer loop
    vertex 152.66347912488442 72.26559718406646 9.999999999999915
    vertex 153.73680538524349 69.62866074003429 4.999999999999914
    vertex 153.73680538524349 69.62866074003429 9.999999999999915
  endloop
endfacet
facet normal -0.9262127322085617 -0.37700129269639304 -8.113960968006503e-16
  outer loop
    vertex 153.73680538524349 69.62866074003429 4.999999999999914
    vertex 152.66347912488442 72.26559718406646 9.999999999999915
    vertex 152.66347912488442 72.26559718406646 4.999999999999914
  endloop
endfacet
facet normal -0.9906244017494031 0.13661366936963987 -5.748292832197196e-16
  outer loop
    vertex 153.73680538524349 69.62866074003429 9.999999999999915
    vertex 153.34786497124725 66.80834366115788 4.999999999999913
    vertex 153.34786497124725 66.80834366115788 9.999999999999913
  endloop
endfacet
facet normal -0.9906244017494031 0.13661366936963987 -5.748292832197196e-16
  outer loop
    vertex 153.34786497124725 66.80834366115788 4.999999999999913
    vertex 153.73680538524349 69.62866074003429 9.999999999999915
    vertex 153.73680538524349 69.62866074003429 4.999999999999914
  endloop
endfacet
facet normal -0.7319283890070317 0.6813815622436311 -9.241502533469146e-16
  outer loop
    vertex 37.12755301479744 95.26267026402859 9.999999999999915
    vertex 35.18765323660348 93.1788631900401 4.999999999999916
    vertex 35.18765323660348 93.1788631900401 9.999999999999915
  endloop
endfacet
facet normal -0.7319283890070317 0.6813815622436311 -9.241502533469146e-16
  outer loop
    vertex 35.18765323660348 93.1788631900401 4.999999999999916
    vertex 37.12755301479744 95.26267026402859 9.999999999999915
    vertex 37.12755301479744 95.26267026402859 4.999999999999914
  endloop
endfacet
facet normal -0.6813815622436301 -0.7319283890070326 2.4762531406932295e-16
  outer loop
    vertex 36.930971992952195 100.75915604149134 4.999999999999909
    vertex 34.8471649189637 102.6990558196853 9.999999999999908
    vertex 34.8471649189637 102.6990558196853 4.999999999999907
  endloop
endfacet
facet normal -0.6813815622436301 -0.7319283890070326 2.4762531406932295e-16
  outer loop
    vertex 34.8471649189637 102.6990558196853 9.999999999999908
    vertex 36.930971992952195 100.75915604149134 4.999999999999909
    vertex 36.930971992952195 100.75915604149134 9.99999999999991
  endloop
endfacet
facet normal 0.15729307630307351 0.9875519673146906 -3.9059185580541275e-16
  outer loop
    vertex 90.02774732878315 150.9217216094514 4.999999999999913
    vertex 92.8393171576477 150.4739067275414 9.999999999999911
    vertex 92.8393171576477 150.4739067275414 4.999999999999911
  endloop
endfacet
facet normal 0.15729307630307351 0.9875519673146906 -3.9059185580541275e-16
  outer loop
    vertex 92.8393171576477 150.4739067275414 9.999999999999911
    vertex 90.02774732878315 150.9217216094514 4.999999999999913
    vertex 90.02774732878315 150.9217216094514 9.999999999999913
  endloop
endfacet
facet normal -0.35755618373948117 0.9338916294033578 -1.429665417360886e-16
  outer loop
    vertex 92.8393171576477 150.4739067275414 4.999999999999911
    vertex 95.49811549491326 151.4918725780469 9.99999999999991
    vertex 95.49811549491326 151.4918725780469 4.999999999999909
  endloop
endfacet
facet normal -0.35755618373948117 0.9338916294033578 -1.429665417360886e-16
  outer loop
    vertex 95.49811549491326 151.4918725780469 9.99999999999991
    vertex 92.8393171576477 150.4739067275414 4.999999999999911
    vertex 92.8393171576477 150.4739067275414 9.999999999999911
  endloop
endfacet
facet normal 0.7895990628389308 -0.61362310905301 1.842374274143141e-16
  outer loop
    vertex 144.95822957193982 73.32820215622097 4.999999999999909
    vertex 143.2112387534225 71.08020612618499 9.999999999999908
    vertex 143.2112387534225 71.08020612618499 4.9999999999999085
  endloop
endfacet
facet normal 0.7895990628389308 -0.61362310905301 1.842374274143141e-16
  outer loop
    vertex 143.2112387534225 71.08020612618499 9.999999999999908
    vertex 144.95822957193982 73.32820215622097 4.999999999999909
    vertex 144.95822957193982 73.32820215622097 9.99999999999991
  endloop
endfacet
facet normal -0.13661366936963654 -0.9906244017494037 -6.271586693863402e-16
  outer loop
    vertex 150.41548309484844 74.01258800258381 4.999999999999914
    vertex 147.59516601597204 74.40152841658002 9.999999999999913
    vertex 147.59516601597204 74.40152841658002 4.999999999999913
  endloop
endfacet
facet normal -0.13661366936963654 -0.9906244017494037 -6.271586693863402e-16
  outer loop
    vertex 147.59516601597204 74.40152841658002 9.999999999999913
    vertex 150.41548309484844 74.01258800258381 4.999999999999914
    vertex 150.41548309484844 74.01258800258381 9.999999999999915
  endloop
endfacet
facet normal 0.990624401749403 -0.1366136693696404 5.748292832197193e-16
  outer loop
    vertex 143.2112387534225 71.08020612618499 4.9999999999999085
    vertex 142.82229833942628 68.25988904730859 9.999999999999906
    vertex 142.82229833942628 68.25988904730859 4.999999999999906
  endloop
endfacet
facet normal 0.990624401749403 -0.1366136693696404 5.748292832197193e-16
  outer loop
    vertex 142.82229833942628 68.25988904730859 9.999999999999906
    vertex 143.2112387534225 71.08020612618499 4.9999999999999085
    vertex 143.2112387534225 71.08020612618499 9.999999999999908
  endloop
endfacet
facet normal 0.13661366936963654 0.9906244017494037 6.271586693863402e-16
  outer loop
    vertex 146.14362062982133 63.875961784759056 9.999999999999906
    vertex 148.96393770869773 63.48702137076285 4.999999999999907
    vertex 146.14362062982133 63.875961784759056 4.999999999999906
  endloop
endfacet
facet normal 0.13661366936963654 0.9906244017494037 6.271586693863402e-16
  outer loop
    vertex 148.96393770869773 63.48702137076285 4.999999999999907
    vertex 146.14362062982133 63.875961784759056 9.999999999999906
    vertex 148.96393770869773 63.48702137076285 9.999999999999908
  endloop
endfacet
facet normal -5.076844827810231e-16 8.109429405774869e-16 1.0
  outer loop
    vertex 27.60736038515224 94.92218194638882 4.999999999999909
    vertex 27.410779363306997 100.41866772385157 4.999999999999906
    vertex 26.77268041158947 97.64408797209482 4.999999999999907
  endloop
endfacet
facet normal -5.076844827810231e-16 8.109429405774869e-16 1.0
  outer loop
    vertex 27.410779363306997 100.41866772385157 4.999999999999906
    vertex 27.60736038515224 94.92218194638882 4.999999999999909
    vertex 29.350679141500954 102.50247479784007 4.999999999999904
  endloop
endfacet
facet normal -5.076844827810231e-16 8.109429405774869e-16 1.0
  outer loop
    vertex 29.350679141500954 102.50247479784007 4.999999999999904
    vertex 27.60736038515224 94.92218194638882 4.999999999999909
    vertex 29.691167459140736 92.98228216819486 4.999999999999913
  endloop
endfacet
facet normal -5.076844827810231e-16 8.109429405774869e-16 1.0
  outer loop
    vertex 29.350679141500954 102.50247479784007 4.999999999999904
    vertex 29.691167459140736 92.98228216819486 4.999999999999913
    vertex 32.072585167206974 103.33715477140284 4.999999999999906
  endloop
endfacet
facet normal -5.076844827810231e-16 8.109429405774869e-16 1.0
  outer loop
    vertex 32.072585167206974 103.33715477140284 4.999999999999906
    vertex 29.691167459140736 92.98228216819486 4.999999999999913
    vertex 32.46574721089747 92.34418321647732 4.999999999999914
  endloop
endfacet
facet normal -5.076844827810231e-16 8.109429405774869e-16 1.0
  outer loop
    vertex 32.072585167206974 103.33715477140284 4.999999999999906
    vertex 32.46574721089747 92.34418321647732 4.999999999999914
    vertex 34.8471649189637 102.6990558196853 4.999999999999907
  endloop
endfacet
facet normal -5.076844827810231e-16 8.109429405774869e-16 1.0
  outer loop
    vertex 34.8471649189637 102.6990558196853 4.999999999999907
    vertex 32.46574721089747 92.34418321647732 4.999999999999914
    vertex 35.18765323660348 93.1788631900401 4.999999999999916
  endloop
endfacet
facet normal -5.076844827810231e-16 8.109429405774869e-16 1.0
  outer loop
    vertex 34.8471649189637 102.6990558196853 4.999999999999907
    vertex 35.18765323660348 93.1788631900401 4.999999999999916
    vertex 36.930971992952195 100.75915604149134 4.999999999999909
  endloop
endfacet
facet normal -5.076844827810231e-16 8.109429405774869e-16 1.0
  outer loop
    vertex 36.930971992952195 100.75915604149134 4.999999999999909
    vertex 35.18765323660348 93.1788631900401 4.999999999999916
    vertex 37.12755301479744 95.26267026402859 4.999999999999914
  endloop
endfacet
facet normal -5.076844827810231e-16 8.109429405774869e-16 1.0
  outer loop
    vertex 36.930971992952195 100.75915604149134 4.999999999999909
    vertex 37.12755301479744 95.26267026402859 4.999999999999914
    vertex 37.765651966514966 98.03725001578533 4.999999999999913
  endloop
endfacet
facet normal -0.29317779750929585 0.9560579370768271 -9.241502533469144e-16
  outer loop
    vertex 32.46574721089747 92.34418321647732 9.999999999999915
    vertex 35.18765323660348 93.1788631900401 4.999999999999916
    vertex 32.46574721089747 92.34418321647732 4.999999999999914
  endloop
endfacet
facet normal -0.29317779750929585 0.9560579370768271 -9.241502533469144e-16
  outer loop
    vertex 35.18765323660348 93.1788631900401 4.999999999999916
    vertex 32.46574721089747 92.34418321647732 9.999999999999915
    vertex 35.18765323660348 93.1788631900401 9.999999999999915
  endloop
endfacet
facet normal -0.9560579370768278 -0.29317779750929407 -2.476253140693233e-16
  outer loop
    vertex 36.930971992952195 100.75915604149134 9.99999999999991
    vertex 37.765651966514966 98.03725001578533 4.999999999999913
    vertex 37.765651966514966 98.03725001578533 9.999999999999913
  endloop
endfacet
facet normal -0.9560579370768278 -0.29317779750929407 -2.476253140693233e-16
  outer loop
    vertex 37.765651966514966 98.03725001578533 4.999999999999913
    vertex 36.930971992952195 100.75915604149134 9.99999999999991
    vertex 36.930971992952195 100.75915604149134 4.999999999999909
  endloop
endfacet
facet normal -0.22412954806979676 -0.9745593597529238 6.765249392775898e-16
  outer loop
    vertex 34.8471649189637 102.6990558196853 4.999999999999907
    vertex 32.072585167206974 103.33715477140284 9.999999999999906
    vertex 32.072585167206974 103.33715477140284 4.999999999999906
  endloop
endfacet
facet normal -0.22412954806979676 -0.9745593597529238 6.765249392775898e-16
  outer loop
    vertex 32.072585167206974 103.33715477140284 9.999999999999906
    vertex 34.8471649189637 102.6990558196853 4.999999999999907
    vertex 34.8471649189637 102.6990558196853 9.999999999999908
  endloop
endfacet
facet normal 0.2931777975092917 -0.9560579370768285 9.241502533469134e-16
  outer loop
    vertex 32.072585167206974 103.33715477140284 4.999999999999906
    vertex 29.350679141500954 102.50247479784007 9.999999999999904
    vertex 29.350679141500954 102.50247479784007 4.999999999999904
  endloop
endfacet
facet normal 0.2931777975092917 -0.9560579370768285 9.241502533469134e-16
  outer loop
    vertex 29.350679141500954 102.50247479784007 9.999999999999904
    vertex 32.072585167206974 103.33715477140284 4.999999999999906
    vertex 32.072585167206974 103.33715477140284 9.999999999999906
  endloop
endfacet
facet normal -0.789599062838927 0.613623109053015 -1.8423742741430896e-16
  outer loop
    vertex 153.34786497124725 66.80834366115788 9.999999999999913
    vertex 151.60087415272992 64.5603476311219 4.999999999999909
    vertex 151.60087415272992 64.5603476311219 9.99999999999991
  endloop
endfacet
facet normal -0.789599062838927 0.613623109053015 -1.8423742741430896e-16
  outer loop
    vertex 151.60087415272992 64.5603476311219 4.999999999999909
    vertex 153.34786497124725 66.80834366115788 9.999999999999913
    vertex 153.34786497124725 66.80834366115788 4.999999999999913
  endloop
endfacet
facet normal 0.7319283890070345 -0.6813815622436281 9.241502533469134e-16
  outer loop
    vertex 29.350679141500954 102.50247479784007 4.999999999999904
    vertex 27.410779363306997 100.41866772385157 9.999999999999906
    vertex 27.410779363306997 100.41866772385157 4.999999999999906
  endloop
endfacet
facet normal 0.7319283890070345 -0.6813815622436281 9.241502533469134e-16
  outer loop
    vertex 27.410779363306997 100.41866772385157 9.999999999999906
    vertex 29.350679141500954 102.50247479784007 4.999999999999904
    vertex 29.350679141500954 102.50247479784007 9.999999999999904
  endloop
endfacet
facet normal -0.9745593597529245 0.22412954806979402 -6.765249392775905e-16
  outer loop
    vertex 37.765651966514966 98.03725001578533 9.999999999999913
    vertex 37.12755301479744 95.26267026402859 4.999999999999914
    vertex 37.12755301479744 95.26267026402859 9.999999999999915
  endloop
endfacet
facet normal -0.9745593597529245 0.22412954806979402 -6.765249392775905e-16
  outer loop
    vertex 37.12755301479744 95.26267026402859 4.999999999999914
    vertex 37.765651966514966 98.03725001578533 9.999999999999913
    vertex 37.765651966514966 98.03725001578533 4.999999999999913
  endloop
endfacet
facet normal 0.9560579370768278 0.29317779750929407 2.476253140693233e-16
  outer loop
    vertex 26.77268041158947 97.64408797209482 4.999999999999907
    vertex 27.60736038515224 94.92218194638882 9.99999999999991
    vertex 27.60736038515224 94.92218194638882 4.999999999999909
  endloop
endfacet
facet normal 0.9560579370768278 0.29317779750929407 2.476253140693233e-16
  outer loop
    vertex 27.60736038515224 94.92218194638882 9.99999999999991
    vertex 26.77268041158947 97.64408797209482 4.999999999999907
    vertex 26.77268041158947 97.64408797209482 9.999999999999908
  endloop
endfacet
facet normal 0.6813815622436301 0.7319283890070326 -2.4762531406932295e-16
  outer loop
    vertex 27.60736038515224 94.92218194638882 9.99999999999991
    vertex 29.691167459140736 92.98228216819486 4.999999999999913
    vertex 27.60736038515224 94.92218194638882 4.999999999999909
  endloop
endfacet
facet normal 0.6813815622436301 0.7319283890070326 -2.4762531406932295e-16
  outer loop
    vertex 29.691167459140736 92.98228216819486 4.999999999999913
    vertex 27.60736038515224 94.92218194638882 9.99999999999991
    vertex 29.691167459140736 92.98228216819486 9.999999999999913
  endloop
endfacet
facet normal 0.22412954806979632 0.9745593597529238 -6.765249392775901e-16
  outer loop
    vertex 29.691167459140736 92.98228216819486 9.999999999999913
    vertex 32.46574721089747 92.34418321647732 4.999999999999914
    vertex 29.691167459140736 92.98228216819486 4.999999999999913
  endloop
endfacet
facet normal 0.22412954806979632 0.9745593597529238 -6.765249392775901e-16
  outer loop
    vertex 32.46574721089747 92.34418321647732 4.999999999999914
    vertex 29.691167459140736 92.98228216819486 9.999999999999913
    vertex 32.46574721089747 92.34418321647732 9.999999999999915
  endloop
endfacet
facet normal 0.6136231090530124 0.7895990628389289 8.305499815020766e-16
  outer loop
    vertex 143.89562459978535 65.6229526032764 9.999999999999906
    vertex 146.14362062982133 63.875961784759056 4.999999999999906
    vertex 143.89562459978535 65.6229526032764 4.999999999999906
  endloop
endfacet
facet normal 0.6136231090530124 0.7895990628389289 8.305499815020766e-16
  outer loop
    vertex 146.14362062982133 63.875961784759056 4.999999999999906
    vertex 143.89562459978535 65.6229526032764 9.999999999999906
    vertex 146.14362062982133 63.875961784759056 9.999999999999906
  endloop
endfacet
facet normal 0.3770012926963868 -0.926212732208564 -2.557206982823571e-16
  outer loop
    vertex 147.59516601597204 74.40152841658002 4.999999999999913
    vertex 144.95822957193982 73.32820215622097 9.99999999999991
    vertex 144.95822957193982 73.32820215622097 4.999999999999909
  endloop
endfacet
facet normal 0.3770012926963868 -0.926212732208564 -2.557206982823571e-16
  outer loop
    vertex 144.95822957193982 73.32820215622097 9.99999999999991
    vertex 147.59516601597204 74.40152841658002 4.999999999999913
    vertex 147.59516601597204 74.40152841658002 9.999999999999913
  endloop
endfacet
facet normal 0.9745593597529241 -0.2241295480697959 6.765249392775916e-16
  outer loop
    vertex 27.410779363306997 100.41866772385157 4.999999999999906
    vertex 26.77268041158947 97.64408797209482 9.999999999999908
    vertex 26.77268041158947 97.64408797209482 4.999999999999907
  endloop
endfacet
facet normal 0.9745593597529241 -0.2241295480697959 6.765249392775916e-16
  outer loop
    vertex 26.77268041158947 97.64408797209482 9.999999999999908
    vertex 27.410779363306997 100.41866772385157 4.999999999999906
    vertex 27.410779363306997 100.41866772385157 9.999999999999906
  endloop
endfacet
facet normal 4.471671501962907e-16 3.2429236103917136e-16 1.0
  outer loop
    vertex 87.81676387342759 152.71532558781044 4.999999999999913
    vertex 87.24661290483209 158.18569375394054 4.999999999999911
    vertex 86.7987980229221 155.374123925076 4.999999999999913
  endloop
endfacet
facet normal 4.471671501962907e-16 3.2429236103917136e-16 1.0
  outer loop
    vertex 87.24661290483209 158.18569375394054 4.999999999999911
    vertex 87.81676387342759 152.71532558781044 4.999999999999913
    vertex 89.04021688319115 160.39667720929612 4.999999999999909
  endloop
endfacet
facet normal 4.471671501962907e-16 3.2429236103917136e-16 1.0
  outer loop
    vertex 89.04021688319115 160.39667720929612 4.999999999999909
    vertex 87.81676387342759 152.71532558781044 4.999999999999913
    vertex 90.02774732878315 150.9217216094514 4.999999999999913
  endloop
endfacet
facet normal 4.471671501962907e-16 3.2429236103917136e-16 1.0
  outer loop
    vertex 89.04021688319115 160.39667720929612 4.999999999999909
    vertex 90.02774732878315 150.9217216094514 4.999999999999913
    vertex 91.6990152204567 161.41464305980162 4.9999999999999085
  endloop
endfacet
facet normal 4.471671501962907e-16 3.2429236103917136e-16 1.0
  outer loop
    vertex 91.6990152204567 161.41464305980162 4.9999999999999085
    vertex 90.02774732878315 150.9217216094514 4.999999999999913
    vertex 92.8393171576477 150.4739067275414 4.999999999999911
  endloop
endfacet
facet normal 4.471671501962907e-16 3.2429236103917136e-16 1.0
  outer loop
    vertex 91.6990152204567 161.41464305980162 4.9999999999999085
    vertex 92.8393171576477 150.4739067275414 4.999999999999911
    vertex 94.51058504932125 160.9668281778916 4.999999999999907
  endloop
endfacet
facet normal 4.471671501962907e-16 3.2429236103917136e-16 1.0
  outer loop
    vertex 94.51058504932125 160.9668281778916 4.999999999999907
    vertex 92.8393171576477 150.4739067275414 4.999999999999911
    vertex 95.49811549491326 151.4918725780469 4.999999999999909
  endloop
endfacet
facet normal 4.471671501962907e-16 3.2429236103917136e-16 1.0
  outer loop
    vertex 94.51058504932125 160.9668281778916 4.999999999999907
    vertex 95.49811549491326 151.4918725780469 4.999999999999909
    vertex 96.72156850467681 159.17322419953257 4.999999999999907
  endloop
endfacet
facet normal 4.471671501962907e-16 3.2429236103917136e-16 1.0
  outer loop
    vertex 96.72156850467681 159.17322419953257 4.999999999999907
    vertex 95.49811549491326 151.4918725780469 4.999999999999909
    vertex 97.29171947327231 153.70285603340244 4.9999999999999085
  endloop
endfacet
facet normal 4.471671501962907e-16 3.2429236103917136e-16 1.0
  outer loop
    vertex 96.72156850467681 159.17322419953257 4.999999999999907
    vertex 97.29171947327231 153.70285603340244 4.9999999999999085
    vertex 97.73953435518231 156.514425862267 4.999999999999907
  endloop
endfacet
facet normal 0.6299957835752116 0.7765985531002845 -5.335583975415021e-16
  outer loop
    vertex 87.81676387342759 152.71532558781044 9.999999999999913
    vertex 90.02774732878315 150.9217216094514 4.999999999999913
    vertex 87.81676387342759 152.71532558781044 4.999999999999913
  endloop
endfacet
facet normal 0.6299957835752116 0.7765985531002845 -5.335583975415021e-16
  outer loop
    vertex 90.02774732878315 150.9217216094514 4.999999999999913
    vertex 87.81676387342759 152.71532558781044 9.999999999999913
    vertex 90.02774732878315 150.9217216094514 9.999999999999913
  endloop
endfacet
endsolid RaspiBotskp
